<svg width="47" height="47" viewBox="0 0 47 47" fill="none" xmlns="http://www.w3.org/2000/svg">
<path d="M0.628906 43.1667H27.4622V47.0001H0.628906V43.1667Z" fill="url(#paint0_linear)"/>
<path d="M23.6291 39.3022C23.6291 38.7939 23.4271 38.3064 23.0677 37.9469C22.7082 37.5875 22.2207 37.3856 21.7124 37.3856H6.37907C5.87074 37.3856 5.38323 37.5875 5.02378 37.9469C4.66434 38.3064 4.4624 38.7939 4.4624 39.3022V41.25H23.6291V39.3022Z" fill="url(#paint1_linear)"/>
<path d="M26.7082 23.6316C25.8152 24.5834 25.0663 25.6608 24.4854 26.8295L40.2614 42.6056C40.6209 42.9649 41.1083 43.1668 41.6165 43.1668C42.1248 43.1668 42.6122 42.9649 42.9716 42.6056L45.6822 39.895C45.8602 39.717 46.0014 39.5057 46.0978 39.2731C46.1941 39.0406 46.2437 38.7913 46.2437 38.5396C46.2437 38.2879 46.1941 38.0387 46.0978 37.8061C46.0014 37.5736 45.8602 37.3623 45.6822 37.1843L29.9062 21.4125C28.7353 21.9884 27.6574 22.7363 26.7082 23.6316Z" fill="url(#paint2_linear)"/>
<path d="M17.2212 14.1445C15.7718 15.4896 14.0939 16.5653 12.2666 17.3209L22.1729 27.2272C22.9353 25.403 24.012 23.7269 25.3541 22.275C26.8036 20.93 28.4814 19.8542 30.3087 19.0982L20.4019 9.19379C19.6392 11.0173 18.5627 12.6929 17.2212 14.1445Z" fill="url(#paint3_linear)"/>
<path d="M23.9944 1.94983L21.2843 4.65999C20.5359 5.40838 20.5359 6.62177 21.2843 7.37016L32.1249 18.2108C32.8733 18.9592 34.0867 18.9592 34.8351 18.2108L37.5453 15.5007C38.2937 14.7523 38.2937 13.5389 37.5453 12.7905L26.7046 1.94983C25.9562 1.20143 24.7428 1.20143 23.9944 1.94983Z" fill="url(#paint4_linear)"/>
<path d="M7.73078 18.2101L5.02061 20.9203C4.27222 21.6687 4.27222 22.8821 5.02061 23.6305L15.8613 34.4711C16.6097 35.2195 17.8231 35.2195 18.5714 34.4711L21.2816 31.761C22.03 31.0126 22.03 29.7992 21.2816 29.0508L10.4409 18.2101C9.69255 17.4617 8.47917 17.4617 7.73078 18.2101Z" fill="url(#paint5_linear)"/>
<defs>
<linearGradient id="paint0_linear" x1="0.583106" y1="44.1424" x2="31.8721" y2="52.3675" gradientUnits="userSpaceOnUse">
<stop stop-color="#474FA0"/>
<stop offset="1" stop-color="#868DD9"/>
</linearGradient>
<linearGradient id="paint1_linear" x1="4.42969" y1="38.3692" x2="27.5223" y2="42.6703" gradientUnits="userSpaceOnUse">
<stop stop-color="#474FA0"/>
<stop offset="1" stop-color="#868DD9"/>
</linearGradient>
<linearGradient id="paint2_linear" x1="24.4482" y1="26.9498" x2="51.5345" y2="27.9672" gradientUnits="userSpaceOnUse">
<stop stop-color="#474FA0"/>
<stop offset="1" stop-color="#868DD9"/>
</linearGradient>
<linearGradient id="paint3_linear" x1="12.2358" y1="13.784" x2="34.6958" y2="14.6278" gradientUnits="userSpaceOnUse">
<stop stop-color="#474FA0"/>
<stop offset="1" stop-color="#868DD9"/>
</linearGradient>
<linearGradient id="paint4_linear" x1="23.3691" y1="9.47352" x2="30.2262" y2="2.8194" gradientUnits="userSpaceOnUse">
<stop stop-color="#474FA0"/>
<stop offset="1" stop-color="#868DD9"/>
</linearGradient>
<linearGradient id="paint5_linear" x1="7.10546" y1="25.7338" x2="13.9625" y2="19.0797" gradientUnits="userSpaceOnUse">
<stop stop-color="#474FA0"/>
<stop offset="1" stop-color="#868DD9"/>
</linearGradient>
</defs>
</svg>
