<svg width="26" height="23" viewBox="0 0 26 23" fill="none" xmlns="http://www.w3.org/2000/svg">
<path d="M18.2498 9.51672V12.4548L21.0455 11.543C20.382 10.5587 19.3916 9.84106 18.2498 9.51672Z" fill="white"/>
<path d="M17.3379 12.5782V9.3452C17.1873 9.33157 17.0359 9.32202 16.8818 9.32202C16.7278 9.32202 16.5764 9.33157 16.426 9.3452V12.5782C16.7237 12.4919 17.04 12.4919 17.3379 12.5782Z" fill="white"/>
<path d="M17.7936 14.3372C17.7936 14.8408 17.3853 15.2491 16.8818 15.2491C16.3783 15.2491 15.97 14.8408 15.97 14.3372C15.97 13.8337 16.3783 13.4254 16.8818 13.4254C17.3853 13.4254 17.7936 13.8337 17.7936 14.3372Z" fill="white"/>
<path d="M11.0116 4.08522C11.7746 4.37916 12.367 4.99744 12.628 5.77214C13.7017 5.23509 14.8676 4.90667 16.0638 4.80421C15.0563 4.16275 13.9308 3.72874 12.7533 3.52752C11.2985 3.29416 9.919 2.72224 8.72607 1.85754C9.22222 2.83113 10.0255 3.6142 11.0116 4.08522Z" fill="white"/>
<path d="M15.3474 13.3596L12.274 12.3597C12.1548 12.6395 12.0612 12.9293 11.9946 13.226L15.0693 14.2249C15.0868 13.9175 15.1825 13.6197 15.3474 13.3596Z" fill="white"/>
<path d="M18.6939 14.2249L21.7688 13.226C21.702 12.9293 21.6085 12.6395 21.4892 12.3597L18.4158 13.3596C18.5808 13.6197 18.6764 13.9175 18.6939 14.2249Z" fill="white"/>
<path d="M9.54127 8.20144C9.09753 7.59602 8.76171 6.91852 8.54821 6.19895C8.47341 5.99052 8.40095 5.78852 8.32673 5.60619C8.20537 5.26471 8.0246 4.94739 7.7928 4.66884C7.37185 4.22159 6.63377 4.13724 5.92063 4.05562L5.62668 4.02095C3.74983 3.7274 2.02746 2.80855 0.738114 1.41343C0.398198 0.998907 0.14964 0.517375 0.00860842 0C-0.109437 1.9947 0.991542 4.24535 3.00494 4.77909C4.76861 5.2464 8.43796 6.21765 7.80195 8.64128C7.46632 9.92031 7.26393 10.6931 6.64429 10.7049C6.08036 10.7342 5.75602 10.0265 5.36137 8.74433C4.9336 7.35389 3.33375 7.16552 2.16986 7.2261C2.84131 7.61472 3.43855 8.11982 3.93333 8.71745C4.39577 9.41949 4.61979 10.252 4.57167 11.0916C4.56934 11.5375 4.62427 11.9818 4.7353 12.4137C4.99886 13.2567 5.77395 13.7659 6.595 14.3053C6.8422 14.4676 7.09115 14.6355 7.33269 14.8124C7.32354 14.6563 7.30717 14.4982 7.30717 14.3373C7.30601 12.0927 8.09707 9.91972 9.54127 8.20144Z" fill="white"/>
<path d="M15.5137 9.51672C14.3716 9.84164 13.3813 10.5602 12.718 11.5451L15.5137 12.4571V9.51672Z" fill="white"/>
<path d="M16.8817 5.67456C12.0975 5.67456 8.21899 9.55312 8.21899 14.3373C8.21899 19.1216 12.0975 23 16.8817 23C21.666 23 25.5444 19.1216 25.5444 14.3373C25.5391 9.55526 21.6637 5.67982 16.8817 5.67456ZM16.4259 6.58639C16.6776 6.58639 16.8817 6.79054 16.8817 7.04241C16.8817 7.29428 16.6776 7.49842 16.4259 7.49842C16.174 7.49842 15.9699 7.29428 15.9699 7.04241C15.9699 6.79054 16.174 6.58639 16.4259 6.58639ZM10.4987 11.6018C10.4194 11.6018 10.3417 11.5811 10.2731 11.5416C10.0545 11.4165 9.97857 11.1382 10.1034 10.9196C12.0083 7.58589 14.4119 7.07104 14.5132 7.05156C14.7569 7.00793 14.9908 7.16649 15.0403 7.40901C15.0898 7.65153 14.9369 7.88938 14.6955 7.9447C14.6618 7.95249 12.5754 8.43383 10.8962 11.3719C10.8148 11.5145 10.6629 11.6024 10.4987 11.6018ZM19.5868 19.6047L19.5841 19.6078C19.5404 19.6386 19.4919 19.6616 19.4403 19.6752C17.7976 20.4737 15.8766 20.4599 14.2455 19.638C14.2228 19.6296 14.2005 19.6197 14.1795 19.6078L14.1766 19.6047C11.8876 18.4531 10.6138 15.9461 11.0336 13.418C11.034 13.4102 11.0349 13.4023 11.0363 13.3945V13.3921C11.4487 10.8643 13.4371 8.88672 15.9671 8.48817H15.9699C16.5733 8.38474 17.1901 8.38474 17.7935 8.48817H17.7968C20.3262 8.88731 22.3141 10.8647 22.7263 13.3921V13.3945C22.7277 13.4023 22.7286 13.4102 22.729 13.418C23.1486 15.9461 21.8751 18.4531 19.5858 19.6047H19.5868Z" fill="white"/>
<path d="M17.551 16.0301L19.4454 18.6397C19.7068 18.4835 19.9536 18.3041 20.1827 18.1037L18.2829 15.4901C18.0885 15.7291 17.8366 15.9148 17.551 16.0301Z" fill="white"/>
<path d="M11.876 14.1462C11.8737 14.2101 11.8665 14.2731 11.8665 14.3373C11.8665 15.4603 12.2455 16.5506 12.9425 17.4313L14.6699 15.054L11.876 14.1462Z" fill="white"/>
<path d="M19.0933 15.054L20.8209 17.4313C21.5177 16.5506 21.8967 15.4603 21.8967 14.3373C21.8967 14.2731 21.8895 14.2101 21.8872 14.1462L19.0933 15.054Z" fill="white"/>
<path d="M15.1545 19.0399C16.2682 19.4569 17.495 19.4569 18.6086 19.0399L16.8816 16.6626L15.1545 19.0399Z" fill="white"/>
<path d="M15.4806 15.4901L13.5806 18.1037C13.8096 18.3041 14.0564 18.4835 14.3179 18.6397L16.2122 16.0301C15.9267 15.9148 15.675 15.7291 15.4806 15.4901Z" fill="white"/>
</svg>
