<svg width="18" height="18" viewBox="0 0 18 18" fill="none" xmlns="http://www.w3.org/2000/svg">
<g clip-path="url(#clip0)">
<path d="M9.00117 7.83289C8.35757 7.83289 7.83398 8.3565 7.83398 9.00007C7.89811 10.5485 10.1045 10.5481 10.1684 9.00007C10.1684 8.35647 9.64478 7.83289 9.00117 7.83289Z" fill="#474FA0"/>
<path d="M8.41406 13.5188C8.80141 13.5685 9.19879 13.5685 9.58614 13.5188C9.50985 12.2123 9.18349 11.4476 9.00012 11.2529C8.81667 11.4476 8.49035 12.2123 8.41406 13.5188Z" fill="#474FA0"/>
<path d="M7.04789 10.0591C6.3563 10.4115 5.63416 10.5432 4.74414 10.6247C5.20659 11.8322 6.1686 12.7942 7.37608 13.2566C7.42913 12.5874 7.5463 11.9708 7.71752 11.4745C7.78737 11.272 7.86278 11.0995 7.94171 10.9529C7.56462 10.7475 7.25324 10.4362 7.04789 10.0591Z" fill="#474FA0"/>
<path d="M9.58614 4.48113C9.19879 4.43142 8.80141 4.43142 8.41406 4.48113C8.49035 5.78768 8.81671 6.55236 9.00008 6.74702C9.18353 6.55236 9.50985 5.78768 9.58614 4.48113Z" fill="#474FA0"/>
<path d="M4.48072 8.41394C4.43091 8.80105 4.43091 9.19891 4.48072 9.58602C5.7873 9.50973 6.55195 9.18337 6.74661 9C6.55195 8.81655 5.7873 8.49023 4.48072 8.41394Z" fill="#474FA0"/>
<path d="M7.04789 7.94097C7.25321 7.56385 7.56459 7.25251 7.94171 7.04716C7.86278 6.90053 7.78737 6.72801 7.71752 6.52551C7.5463 6.02921 7.42913 5.41261 7.37608 4.74341C6.1686 5.20585 5.20659 6.16787 4.74414 7.37535C5.63416 7.4568 6.35637 7.58857 7.04789 7.94097Z" fill="#474FA0"/>
<path d="M17.4727 7.34253C17.4575 7.34253 17.446 7.33311 17.4434 7.3201C17.4408 7.30723 17.4478 7.29401 17.4601 7.28895C17.7334 7.17571 17.8578 6.86616 17.7472 6.59911L16.8826 4.51171C16.772 4.24466 16.4651 4.11381 16.1918 4.22695C16.1795 4.23201 16.1652 4.22768 16.1579 4.21671C16.1505 4.20571 16.152 4.19091 16.1628 4.18015C16.3687 3.97421 16.3687 3.64033 16.1628 3.43438L14.5652 1.83678C14.3592 1.63083 14.0253 1.63083 13.8194 1.83678C13.8086 1.84754 13.7938 1.84901 13.7828 1.84163C13.7719 1.83439 13.7675 1.82004 13.7726 1.80781C13.8858 1.5345 13.7549 1.22763 13.4878 1.11699L11.4005 0.25232C11.1334 0.141719 10.8239 0.266207 10.7106 0.539441C10.7055 0.551711 10.6924 0.558777 10.6795 0.556141C10.6665 0.553574 10.6571 0.542078 10.6571 0.526855C10.6571 0.235621 10.4209 -0.000488281 10.1297 -0.000488281H7.87032C7.57909 -0.000488281 7.34298 0.235621 7.34298 0.526855C7.34298 0.542078 7.33356 0.553574 7.32055 0.556141C7.30768 0.558777 7.29447 0.551711 7.2894 0.539441C7.17616 0.266172 6.86661 0.141719 6.59957 0.25232L4.51216 1.11695C4.24512 1.22759 4.11427 1.53447 4.2274 1.80777C4.23246 1.82004 4.22814 1.83435 4.21717 1.84159C4.20616 1.84898 4.19136 1.8475 4.18061 1.83674C3.97466 1.6308 3.64078 1.6308 3.43484 1.83674L1.83727 3.43438C1.63132 3.64033 1.63132 3.97421 1.83727 4.18015C1.84802 4.19091 1.8495 4.20571 1.84212 4.21671C1.83487 4.22768 1.82053 4.23201 1.80826 4.22695C1.53496 4.11378 1.22808 4.24466 1.11744 4.51171L0.252809 6.59911C0.142207 6.86616 0.266695 7.17571 0.53993 7.28895C0.552199 7.29405 0.559266 7.30723 0.556629 7.3201C0.554062 7.33311 0.542566 7.34253 0.527344 7.34253C0.236109 7.34253 0 7.57864 0 7.86987V10.1293C0 10.4205 0.236109 10.6566 0.527344 10.6566C0.542566 10.6566 0.554062 10.666 0.556629 10.679C0.559266 10.6919 0.552199 10.7051 0.53993 10.7102C0.26666 10.8234 0.142207 11.133 0.252809 11.4L1.11744 13.4874C1.22808 13.7545 1.53496 13.8853 1.80826 13.7722C1.82053 13.7671 1.83484 13.7714 1.84212 13.7824C1.8495 13.7934 1.84802 13.8082 1.83727 13.819C1.63132 14.0249 1.63132 14.3588 1.83727 14.5647L3.43487 16.1624C3.64082 16.3683 3.9747 16.3683 4.18064 16.1624C4.1914 16.1516 4.2062 16.1501 4.2172 16.1575C4.22817 16.1647 4.2325 16.1791 4.22743 16.1914C4.11427 16.4647 4.24515 16.7715 4.5122 16.8822L6.5996 17.7468C6.86665 17.8574 7.1762 17.7329 7.28944 17.4597C7.29454 17.4474 7.30772 17.4404 7.32059 17.443C7.33359 17.4456 7.34302 17.4571 7.34302 17.4723C7.34302 17.7635 7.57913 17.9996 7.87036 17.9996H10.1297C10.421 17.9996 10.6571 17.7635 10.6571 17.4723C10.6571 17.4571 10.6665 17.4456 10.6795 17.443C10.6924 17.4404 10.7056 17.4474 10.7107 17.4597C10.8239 17.733 11.1335 17.8574 11.4005 17.7468L13.4879 16.8822C13.755 16.7715 13.8858 16.4647 13.7727 16.1914C13.7676 16.1791 13.7719 16.1648 13.7829 16.1575C13.7939 16.1501 13.8087 16.1516 13.8195 16.1624C14.0254 16.3683 14.3593 16.3683 14.5652 16.1624L16.1628 14.5647C16.3688 14.3588 16.3688 14.0249 16.1628 13.819C16.1521 13.8082 16.1506 13.7934 16.158 13.7824C16.1652 13.7714 16.1796 13.7671 16.1918 13.7722C16.4651 13.8854 16.772 13.7545 16.8827 13.4874L17.7473 11.4C17.8579 11.133 17.7334 10.8234 17.4602 10.7102C17.4479 10.7051 17.4408 10.6919 17.4435 10.679C17.446 10.666 17.4575 10.6566 17.4728 10.6566C17.764 10.6566 18.0001 10.4205 18.0001 10.1293V7.86987C18 7.57864 17.7639 7.34253 17.4727 7.34253ZM9.00004 14.6105C5.90615 14.6105 3.3891 12.0934 3.3891 8.99955C3.69731 1.55588 14.3039 1.55802 14.611 8.99958C14.611 12.0934 12.0939 14.6105 9.00004 14.6105Z" fill="#474FA0"/>
<path d="M10.9524 10.0591C10.7471 10.4362 10.4357 10.7475 10.0586 10.9529C10.1375 11.0995 10.2129 11.272 10.2828 11.4745C10.454 11.9708 10.5712 12.5874 10.6242 13.2566C11.8317 12.7942 12.7937 11.8322 13.2562 10.6247C12.3661 10.5433 11.6439 10.4115 10.9524 10.0591Z" fill="#474FA0"/>
<path d="M10.6242 4.74341C10.5712 5.41261 10.454 6.02921 10.2828 6.52551C10.2129 6.72801 10.1375 6.90053 10.0586 7.04716C10.4357 7.25247 10.7471 7.56385 10.9524 7.94097C11.644 7.58853 12.3661 7.45684 13.2562 7.37535C12.7937 6.16787 11.8317 5.20585 10.6242 4.74341Z" fill="#474FA0"/>
<path d="M13.5198 9.58602C13.5696 9.19891 13.5696 8.80105 13.5198 8.41394C12.2132 8.49023 11.4486 8.81659 11.2539 8.99996C11.4486 9.18341 12.2132 9.50973 13.5198 9.58602Z" fill="#474FA0"/>
</g>
<defs>
<clipPath id="clip0">
<rect width="18" height="18" fill="white"/>
</clipPath>
</defs>
</svg>
