<svg width="49" height="33" viewBox="0 0 49 33" fill="none" xmlns="http://www.w3.org/2000/svg">
<path d="M45.961 10.239C45.928 10.201 45.9 10.164 45.861 10.127L44.144 8.47C45.568 8.147 47.101 6.954 47.101 5.73C47.101 4.304 45.122 3.798 43.433 3.798C41.667 3.798 41.462 5.008 41.441 5.863L37.011 1.592C36.111 0.701 34.404 0 33.128 0H24.5H24.498H15.868C14.593 0 12.887 0.701 11.986 1.592L7.557 5.863C7.534 5.008 7.329 3.798 5.565 3.798C3.874 3.798 1.896 4.304 1.896 5.73C1.896 6.954 3.43 8.147 4.854 8.47L3.137 10.127C3.098 10.164 3.071 10.201 3.037 10.239C1.2 11.809 0 14.721 0 16.834V23.113C0 24.637 0.601 26.02 1.572 27.051V29.486C1.572 30.91 2.764 32.071 4.23 32.071H7.444C8.91 32.071 10.101 30.912 10.101 29.486V28.863H24.498H24.5H38.896V29.486C38.896 30.912 40.086 32.071 41.554 32.071H44.767C46.234 32.071 47.424 30.91 47.424 29.486V27.051C48.396 26.02 48.996 24.637 48.996 23.113V16.834C48.998 14.721 47.798 11.809 45.961 10.239ZM13.613 3.49C14.236 2.971 15.325 2.577 15.868 2.577H24.498H24.5H33.13C33.673 2.577 34.762 2.971 35.385 3.49L41.194 9.12H24.5H24.498H7.805L13.613 3.49ZM1.993 15.884C1.993 14.338 3.203 13.083 4.697 13.083C6.19 13.083 11.069 15.947 11.069 17.493C11.069 19.039 6.19 18.681 4.697 18.681C3.203 18.681 1.993 17.431 1.993 15.884ZM10.102 26.11H9.587H9.072L6.017 26.115C5.169 25.851 4.571 25.543 4.148 25.212C3.934 25.045 3.77 24.871 3.642 24.698C3.513 24.523 3.419 24.351 3.358 24.179C2.978 23.105 3.763 22.118 3.763 22.118H8.977L12.453 26.108L10.102 26.11ZM31.996 26.112H24.5H24.498H17.002C15.439 26.112 14.17 24.843 14.17 23.281H24.498H24.5H34.828C34.828 24.845 33.559 26.112 31.996 26.112ZM32.654 21.349H24.5H24.498H16.344C14.644 21.349 13.264 19.253 13.264 16.668H24.498H24.5H35.734C35.734 19.254 34.354 21.349 32.654 21.349ZM45.641 24.181C45.579 24.353 45.485 24.525 45.356 24.699C45.229 24.872 45.065 25.046 44.85 25.213C44.428 25.544 43.829 25.854 42.981 26.116L39.926 26.111H39.411H38.896H36.543L40.021 22.121H45.234C45.234 22.12 46.02 23.105 45.641 24.181ZM44.301 18.681C42.809 18.681 37.93 19.037 37.93 17.493C37.93 15.949 42.809 13.083 44.301 13.083C45.795 13.083 47.005 14.338 47.005 15.884C47.005 17.429 45.795 18.681 44.301 18.681Z" fill="white"/>
</svg>
