<svg width="65" height="46" viewBox="0 0 65 46" fill="none" xmlns="http://www.w3.org/2000/svg">
<path d="M64.6495 29.6258V24.0526C64.4844 14.64 62.9569 8.48883 60.0671 5.599C57.1772 2.62661 51.1912 0.975286 42.1089 0.64502H41.3658V11.6676C47.3931 11.6676 50.4068 13.2364 50.4068 16.3739H49.9114C44.7923 16.3739 41.0768 17.5299 38.7649 19.8417C36.3705 22.1536 35.1733 25.8278 35.1733 30.8643C35.1733 35.9009 36.3705 39.5751 38.7649 41.8869C41.0768 44.1988 44.7923 45.3547 49.9114 45.3547C55.1131 45.3547 58.8699 44.1575 61.1817 41.7631C63.4936 39.3687 64.6495 35.3229 64.6495 29.6258ZM29.4762 29.6258V24.0526C29.3111 14.64 27.7836 8.48883 24.8938 5.599C22.004 2.62661 16.0179 0.975286 6.93558 0.64502H6.19248V11.6676C12.2198 11.6676 15.2335 13.2364 15.2335 16.3739H14.7381C9.61899 16.3739 5.9035 17.5299 3.59164 19.8417C1.19721 22.1536 0 25.8278 0 30.8643C0 35.9009 1.19721 39.5751 3.59164 41.8869C5.9035 44.1988 9.61899 45.3547 14.7381 45.3547C19.9398 45.3547 23.6966 44.1575 26.0084 41.7631C28.3203 39.3687 29.4762 35.3229 29.4762 29.6258Z" fill="#FD4B0D"/>
</svg>
