<svg width="50" height="44" viewBox="0 0 50 44" fill="none" xmlns="http://www.w3.org/2000/svg">
<path d="M35.9375 0.171875H28.125C27.4778 0.171875 26.9531 0.696541 26.9531 1.34375V3.6875C26.9531 4.33471 27.4778 4.85938 28.125 4.85938H35.9375C36.5847 4.85938 37.1094 4.33471 37.1094 3.6875V1.34375C37.1094 0.696541 36.5847 0.171875 35.9375 0.171875Z" fill="white"/>
<path d="M13.2812 17.3594H5.46875C5.15795 17.3594 4.85988 17.4828 4.64011 17.7026C4.42034 17.9224 4.29688 18.2204 4.29688 18.5312C4.29688 18.8421 4.42034 19.1401 4.64011 19.3599C4.85988 19.5797 5.15795 19.7031 5.46875 19.7031H13.2812C13.5921 19.7031 13.8901 19.5797 14.1099 19.3599C14.3297 19.1401 14.4531 18.8421 14.4531 18.5312C14.4531 18.2204 14.3297 17.9224 14.1099 17.7026C13.8901 17.4828 13.5921 17.3594 13.2812 17.3594Z" fill="white"/>
<path d="M12.8906 27.9062C12.8906 27.5954 12.7672 27.2974 12.5474 27.0776C12.3276 26.8578 12.0296 26.7344 11.7188 26.7344H3.90625C3.59545 26.7344 3.29738 26.8578 3.07761 27.0776C2.85784 27.2974 2.73438 27.5954 2.73438 27.9062C2.73438 28.2171 2.85784 28.5151 3.07761 28.7349C3.29738 28.9547 3.59545 29.0781 3.90625 29.0781H11.7188C12.0296 29.0781 12.3276 28.9547 12.5474 28.7349C12.7672 28.5151 12.8906 28.2171 12.8906 27.9062Z" fill="white"/>
<path d="M12.5 31.4219H7.03125C6.72045 31.4219 6.42238 31.5453 6.20261 31.7651C5.98284 31.9849 5.85938 32.2829 5.85938 32.5938C5.85938 32.9046 5.98284 33.2026 6.20261 33.4224C6.42238 33.6422 6.72045 33.7656 7.03125 33.7656H12.5C12.8108 33.7656 13.1089 33.6422 13.3286 33.4224C13.5484 33.2026 13.6719 32.9046 13.6719 32.5938C13.6719 32.2829 13.5484 31.9849 13.3286 31.7651C13.1089 31.5453 12.8108 31.4219 12.5 31.4219Z" fill="white"/>
<path d="M12.8906 23.2188C12.8906 22.9079 12.7672 22.6099 12.5474 22.3901C12.3276 22.1703 12.0296 22.0469 11.7188 22.0469H1.5625C1.2517 22.0469 0.953628 22.1703 0.733859 22.3901C0.51409 22.6099 0.390625 22.9079 0.390625 23.2188C0.390625 23.5296 0.51409 23.8276 0.733859 24.0474C0.953628 24.2672 1.2517 24.3906 1.5625 24.3906H11.7188C12.0296 24.3906 12.3276 24.2672 12.5474 24.0474C12.7672 23.8276 12.8906 23.5296 12.8906 23.2188Z" fill="white"/>
<path d="M32.0312 25.5625V12.2812C24.7079 12.2812 18.75 18.2392 18.75 25.5625C18.75 32.8858 24.7079 38.8438 32.0312 38.8438C39.3546 38.8438 45.3125 32.8858 45.3125 25.5625H32.0312Z" fill="white"/>
<path d="M44.8845 13.5853L46.1411 12.3286C46.2513 12.2201 46.339 12.0909 46.3991 11.9483C46.4592 11.8058 46.4904 11.6527 46.4911 11.498C46.4917 11.3433 46.4617 11.19 46.4028 11.047C46.3439 10.904 46.2572 10.774 46.1478 10.6646C46.0384 10.5552 45.9085 10.4686 45.7654 10.4097C45.6224 10.3508 45.4691 10.3208 45.3144 10.3214C45.1597 10.322 45.0067 10.3533 44.8641 10.4133C44.7216 10.4734 44.5923 10.5611 44.4838 10.6714L43.176 11.9791C40.6574 9.90433 37.6091 8.57482 34.3749 8.14062V6.03125H29.6874V8.14062C26.4534 8.57465 23.405 9.90395 20.8864 11.9785L19.5786 10.6708C19.4701 10.5605 19.3408 10.4728 19.1983 10.4128C19.0557 10.3527 18.9027 10.3214 18.748 10.3208C18.5933 10.3202 18.44 10.3502 18.2969 10.4091C18.1539 10.468 18.0239 10.5546 17.9146 10.664C17.8052 10.7734 17.7185 10.9034 17.6596 11.0464C17.6007 11.1895 17.5707 11.3427 17.5713 11.4974C17.572 11.6521 17.6032 11.8052 17.6633 11.9477C17.7234 12.0903 17.8111 12.2195 17.9213 12.328L19.1779 13.5847C16.139 16.8324 14.4498 21.1148 14.4531 25.5625C14.4531 35.2551 22.3386 43.1406 32.0312 43.1406C41.7238 43.1406 49.6093 35.2551 49.6093 25.5625C49.6124 21.115 47.9232 16.8329 44.8845 13.5853ZM32.0312 40.0156C29.1726 40.0156 26.3783 39.168 24.0015 37.5798C21.6247 35.9917 19.7722 33.7344 18.6782 31.0935C17.5843 28.4525 17.2981 25.5465 17.8558 22.7428C18.4135 19.9392 19.79 17.3639 21.8113 15.3426C23.8326 13.3213 26.4079 11.9448 29.2115 11.3871C32.0152 10.8294 34.9212 11.1156 37.5622 12.2096C40.2031 13.3035 42.4604 15.156 44.0485 17.5328C45.6367 19.9096 46.4843 22.7039 46.4843 25.5625C46.4843 27.4605 46.1105 29.3399 45.3841 31.0935C44.6578 32.847 43.5932 34.4403 42.2511 35.7824C40.909 37.1245 39.3157 38.1891 37.5622 38.9154C35.8086 39.6418 33.9292 40.0156 32.0312 40.0156Z" fill="white"/>
</svg>
