<svg width="50" height="50" viewBox="0 0 50 50" fill="none" xmlns="http://www.w3.org/2000/svg">
<g clip-path="url(#clip0)">
<path d="M24.9999 16.9534C20.5604 16.9534 16.9533 20.5605 16.9533 25C16.9533 29.4395 20.5604 33.0466 24.9999 33.0466C29.4395 33.0466 33.0466 29.4395 33.0466 25C33.0466 20.5605 29.4395 16.9534 24.9999 16.9534ZM24.3895 22.6138C23.3906 22.6138 22.5582 23.4462 22.5582 24.4451H19.8945C19.95 21.9478 21.9478 19.95 24.3895 19.95V22.6138Z" fill="white"/>
<path d="M49.4173 23.3352C46.6981 19.95 36.9867 8.90674 25 8.90674C13.0133 8.90674 3.30189 19.95 0.582686 23.3352C-0.194229 24.2785 -0.194229 25.6659 0.582686 26.6648C3.30189 30.0499 13.0133 41.0932 25 41.0932C36.9867 41.0932 46.6981 30.0499 49.4173 26.6648C50.1942 25.7214 50.1942 24.334 49.4173 23.3352ZM25 36.6537C18.5627 36.6537 13.3463 31.4373 13.3463 25C13.3463 18.5627 18.5627 13.3463 25 13.3463C31.4373 13.3463 36.6537 18.5627 36.6537 25C36.6537 31.4373 31.4373 36.6537 25 36.6537Z" fill="white"/>
</g>
<defs>
<clipPath id="clip0">
<rect width="50" height="50" fill="white"/>
</clipPath>
</defs>
</svg>
