<svg width="215" height="43" viewBox="0 0 215 43" fill="none" xmlns="http://www.w3.org/2000/svg">
<g clip-path="url(#clip0)">
<path d="M62.8866 41.6189C62.8866 43.6925 153.638 42.8411 153.638 40.1817C152.894 37.947 62.8866 38.9047 62.8866 41.6189Z" fill="#FD4B0D"/>
<path d="M112.289 1.55494C93.4354 5.63977 76.6033 13.5687 70.5439 17.0226C99.6906 6.26727 114.623 3.19658 130.74 4.78551C146.856 6.37444 163.653 9.70364 174.7 13.3355C183.538 16.241 194.348 18.8352 198.649 19.7691C192.8 20.5238 189.687 19.5804 180.631 18.2597C171.575 16.9391 161.575 18.3541 151.199 20.8068C142.897 22.7689 132.661 23.6686 128.58 23.8732C132.871 24.2239 143.593 24.4736 152.156 22.6668C162.859 20.4083 176.311 19.9173 183.774 22.0776C189.744 23.8058 194.641 24.0415 196.343 23.9433C208.441 21.9794 213.822 15.0731 215 11.8654C205.082 19.5246 194.87 14.5167 187.8 12.5528C180.73 10.5889 135.855 -3.5511 112.289 1.55494Z" fill="#FD4B0D"/>
<path d="M60.4809 18.6626C29.2449 20.7885 7.14522 29.4506 -0.00012207 33.5159C21.2369 26.3767 51.1927 20.3791 86.7246 22.3243C122.257 24.2695 153.941 17.5543 165.342 13.9536C103.064 22.3956 99.5258 16.0051 60.4809 18.6626Z" fill="#FD4B0D"/>
<path d="M19.6397 29.5272C12.2282 31.6876 8.67506 34.5532 7.82489 35.7159C9.08764 35.8159 13.451 35.6034 20.8024 33.953C29.9918 31.8901 31.7921 26.4891 30.6294 26.5266C29.4667 26.5641 28.9041 26.8267 19.6397 29.5272Z" fill="#FD4B0D"/>
</g>
<defs>
<clipPath id="clip0">
<rect width="215" height="43" fill="white"/>
</clipPath>
</defs>
</svg>
