<svg width="166" height="40" viewBox="0 0 166 40" fill="none" xmlns="http://www.w3.org/2000/svg">
<path d="M40.5902 1.11978V38.2612H29.1295V11.9438H19.738L17.7217 26.429C17.1204 30.6383 15.4756 33.6627 12.7872 35.5021C10.1343 37.3415 6.13717 38.2612 0.795887 38.2612H0V27.331C2.61758 27.331 4.33316 26.9949 5.14673 26.3229C5.99568 25.6508 6.56164 24.2889 6.84463 22.2373L9.81594 1.11978H40.5902Z" fill="#E9E9E9"/>
<path d="M85.7895 17.9926V21.3884C85.7188 28.1092 84.41 32.743 81.8632 35.2898C79.3517 37.8013 74.7356 39.0924 68.0147 39.1632H63.1333C56.4125 39.0924 51.7787 37.8013 49.2318 35.2898C46.7203 32.743 45.4292 28.1092 45.3585 21.3884V17.9926C45.4292 11.2718 46.7203 6.65561 49.2318 4.14415C51.7787 1.59731 56.4125 0.288518 63.1333 0.217773H68.0147C74.7356 0.288518 79.3517 1.59731 81.8632 4.14415C84.41 6.65561 85.7188 11.2718 85.7895 17.9926ZM56.8193 18.2579V21.1231C56.8193 24.0944 57.2614 26.0222 58.1457 26.9065C59.0301 27.7908 60.9579 28.233 63.9292 28.233H67.2188C70.1902 28.233 72.118 27.7908 73.0023 26.9065C73.8866 26.0222 74.3288 24.0944 74.3288 21.1231V18.2579C74.3288 15.3219 73.8866 13.4118 73.0023 12.5275C72.118 11.6078 70.1902 11.1479 67.2188 11.1479H63.9292C60.9579 11.1479 59.0301 11.6078 58.1457 12.5275C57.2614 13.4118 56.8193 15.3219 56.8193 18.2579Z" fill="#E9E9E9"/>
<path d="M122.978 11.9438H102.02V38.2612H90.5591V1.11978H122.978V11.9438Z" fill="#E9E9E9"/>
<path d="M166 17.9926V21.3884C165.929 28.1092 164.62 32.743 162.074 35.2898C159.562 37.8013 154.946 39.0924 148.225 39.1632H143.344C136.623 39.0924 131.989 37.8013 129.442 35.2898C126.931 32.743 125.64 28.1092 125.569 21.3884V17.9926C125.64 11.2718 126.931 6.65561 129.442 4.14415C131.989 1.59731 136.623 0.288518 143.344 0.217773H148.225C154.946 0.288518 159.562 1.59731 162.074 4.14415C164.62 6.65561 165.929 11.2718 166 17.9926ZM137.03 18.2579V21.1231C137.03 24.0944 137.472 26.0222 138.356 26.9065C139.241 27.7908 141.168 28.233 144.14 28.233H147.429C150.401 28.233 152.328 27.7908 153.213 26.9065C154.097 26.0222 154.539 24.0944 154.539 21.1231V18.2579C154.539 15.3219 154.097 13.4118 153.213 12.5275C152.328 11.6078 150.401 11.1479 147.429 11.1479H144.14C141.168 11.1479 139.241 11.6078 138.356 12.5275C137.472 13.4118 137.03 15.3219 137.03 18.2579Z" fill="#E9E9E9"/>
<path d="M40.5902 1.11963V38.261H29.1295V11.9437H19.738L17.7217 26.4288C17.1204 30.6382 15.4756 33.6626 12.7872 35.5019C10.1343 37.3413 6.13717 38.261 0.795887 38.261H0V27.3308C2.61758 27.3308 4.33316 26.9948 5.14673 26.3227C5.99568 25.6506 6.56164 24.2888 6.84463 22.2372L9.81594 1.11963H40.5902Z" fill="#FD4B0D"/>
</svg>
