<svg width="23" height="23" viewBox="0 0 23 23" fill="none" xmlns="http://www.w3.org/2000/svg">
<path d="M14.1159 7.94597C14.0928 7.80743 14.027 7.67958 13.9278 7.58026L10.7513 4.40379C10.4881 4.14063 10.0615 4.14063 9.79836 4.40379L8.68659 5.51556L7.89246 4.72143C7.62931 4.45828 7.20268 4.45828 6.93953 4.72143L4.0807 7.58026C3.86207 7.79889 3.82029 8.13828 3.97936 8.4034L4.66163 9.54047L0.904277 13.2979C0.641125 13.561 0.641125 13.9876 0.904277 14.2508L1.69841 15.0449L0.986844 15.7564C0.35048 16.3928 0 17.2389 0 18.1388V22.3262C0 22.6984 0.301695 23 0.673828 23C1.04596 23 1.34766 22.6984 1.34766 22.3262V18.1388C1.34766 17.5989 1.55794 17.0913 1.93977 16.7094L2.65133 15.9979L4.39839 17.7449C5.71204 19.0586 7.84947 19.0585 9.16307 17.7449L14.563 12.3449C14.7169 12.191 14.787 11.9724 14.7512 11.7577L14.1159 7.94597ZM8.21015 16.792C7.42199 17.5801 6.13952 17.5802 5.35132 16.792L4.87483 16.3155L7.37743 13.8129V14.7273C7.37743 15.0994 7.67912 15.4011 8.05126 15.4011C8.42339 15.4011 8.72509 15.0994 8.72509 14.7273V13.2764L10.7255 14.2765L8.21015 16.792Z" fill="white"/>
<path d="M22.0106 8.54365C21.5533 7.75536 21.1027 7.10152 21.0837 7.07407C20.9579 6.89191 20.7507 6.7832 20.5293 6.7832C20.3079 6.7832 20.1007 6.89191 19.9749 7.07407C19.9559 7.10152 19.5053 7.75536 19.048 8.54365C18.1612 10.0724 18.0586 10.7067 18.0586 11.0508C18.0586 12.4131 19.167 13.5215 20.5293 13.5215C21.8916 13.5215 23 12.4131 23 11.0508C23 10.7067 22.8974 10.0724 22.0106 8.54365Z" fill="white"/>
<path d="M20.2118 3.36892C20.3917 3.36892 20.561 3.29879 20.6882 3.17153C20.8155 3.04422 20.8856 2.875 20.8856 2.69509V0.673873C20.8856 0.302369 20.5833 8.98515e-05 20.2117 4.49296e-05L19.0661 7.73362e-09C17.0562 -8.9836e-05 15.1666 0.782629 13.7453 2.20387L12.1013 3.84787L14.4837 6.23022L16.1278 4.58607C16.9126 3.80129 17.956 3.3691 19.0658 3.36905L20.2118 3.36892Z" fill="white"/>
</svg>
