<svg width="47" height="46" viewBox="0 0 47 46" fill="none" xmlns="http://www.w3.org/2000/svg">
<path d="M43.4929 37.6364H36.1748C31.5632 37.6364 27.8113 33.8845 27.8113 29.273C27.8113 24.6614 31.5632 20.9095 36.1748 20.9095H43.4929C44.0708 20.9095 44.5384 20.4419 44.5384 19.864V16.7277C44.5384 14.5354 42.8379 12.7525 40.6894 12.5796L34.6853 2.0926C34.1289 1.1227 33.2305 0.429472 32.1554 0.141618C31.0854 -0.144277 29.9666 0.00587422 29.0089 0.563256L8.42656 12.5459H4.81167C2.5054 12.5459 0.629883 14.4213 0.629883 16.7277V41.8182C0.629883 44.1245 2.5053 46 4.81167 46H40.3566C42.6629 46 44.5384 44.1246 44.5384 41.8182V38.6819C44.5384 38.104 44.0708 37.6364 43.4929 37.6364ZM35.9819 8.56712L38.2599 12.5459H29.1478L35.9819 8.56712ZM12.5822 12.5459L30.0614 2.37026C30.5341 2.09358 31.0864 2.02007 31.6143 2.16101C32.1483 2.30391 32.5934 2.649 32.8701 3.1319L32.8723 3.13572L16.7095 12.5459H12.5822Z" fill="url(#paint0_linear)"/>
<path d="M43.4921 23.0003H36.174C32.715 23.0003 29.9014 25.814 29.9014 29.273C29.9014 32.7319 32.715 35.5456 36.174 35.5456H43.4921C45.2216 35.5456 46.6284 34.1388 46.6284 32.4093V26.1367C46.6284 24.4072 45.2216 23.0003 43.4921 23.0003ZM36.174 31.3638C35.0214 31.3638 34.0831 30.4256 34.0831 29.273C34.0831 28.1204 35.0214 27.1821 36.174 27.1821C37.3266 27.1821 38.2648 28.1204 38.2648 29.273C38.2649 30.4256 37.3267 31.3638 36.174 31.3638Z" fill="url(#paint1_linear)"/>
<defs>
<linearGradient id="paint0_linear" x1="0.554939" y1="11.7087" x2="55.2221" y2="13.6683" gradientUnits="userSpaceOnUse">
<stop stop-color="#474FA0"/>
<stop offset="1" stop-color="#868DD9"/>
</linearGradient>
<linearGradient id="paint1_linear" x1="29.8728" y1="26.1936" x2="50.673" y2="27.2351" gradientUnits="userSpaceOnUse">
<stop stop-color="#474FA0"/>
<stop offset="1" stop-color="#868DD9"/>
</linearGradient>
</defs>
</svg>
