<svg width="39" height="45" viewBox="0 0 39 45" fill="none" xmlns="http://www.w3.org/2000/svg">
<path d="M25.8293 15.9997C24.0662 15.9997 22.6294 14.563 22.6294 12.7999V0.000488281H3.43032C1.6672 0.000488281 0.230469 1.43722 0.230469 3.20034V19.3628C5.64462 20.1468 9.83003 24.7705 9.83003 30.3991C9.83003 32.8182 9.06206 35.1157 7.64133 37.026L9.58044 44.7984H35.4289C37.1952 44.7984 38.6287 43.3649 38.6287 41.5986V15.9997H25.8293ZM8.2301 12.7999C7.34694 12.7999 6.63018 12.0831 6.63018 11.2C6.63018 10.3168 7.34694 9.60005 8.2301 9.60005H17.8297C18.7128 9.60005 19.4296 10.3168 19.4296 11.2C19.4296 12.0831 18.7128 12.7999 17.8297 12.7999H8.2301ZM30.6291 31.999H14.6298C13.7466 31.999 13.0299 31.2822 13.0299 30.3991C13.0299 29.5159 13.7466 28.7992 14.6298 28.7992H30.6291C31.5122 28.7992 32.229 29.5159 32.229 30.3991C32.229 31.2822 31.5122 31.999 30.6291 31.999ZM30.6291 22.3995H11.43C10.5468 22.3995 9.83003 21.6827 9.83003 20.7995C9.83003 19.9164 10.5468 19.1996 11.43 19.1996H30.6291C31.5122 19.1996 32.229 19.9164 32.229 20.7995C32.229 21.6827 31.5122 22.3995 30.6291 22.3995Z" fill="url(#paint0_linear)"/>
<defs>
<linearGradient id="paint0_linear" x1="0.16493" y1="11.4032" x2="47.9836" y2="12.9424" gradientUnits="userSpaceOnUse">
<stop stop-color="#474FA0"/>
<stop offset="1" stop-color="#868DD9"/>
</linearGradient>
</defs>
</svg>
