<svg width="55" height="40" viewBox="0 0 55 40" fill="none" xmlns="http://www.w3.org/2000/svg">
<path d="M17.0274 17.3575H4.2352C3.80496 17.3575 3.45605 17.7063 3.45605 18.1366V23.9537C3.45605 24.3841 3.80496 24.7331 4.2352 24.7331H17.0274C17.4577 24.7331 17.8066 24.3841 17.8066 23.9537V18.1366C17.8066 17.7063 17.4577 17.3575 17.0274 17.3575Z" fill="url(#paint0_linear)"/>
<path d="M42.1631 19.5306H37.5496C37.3654 19.5306 37.2158 19.6801 37.2158 19.8646V24.478C37.2158 24.6623 37.3654 24.8119 37.5496 24.8119H42.1631C42.3474 24.8119 42.4968 24.6623 42.4968 24.478V19.8646C42.4968 19.6801 42.3474 19.5306 42.1631 19.5306Z" fill="url(#paint1_linear)"/>
<path d="M34.7621 19.5306H30.149C29.9642 19.5306 29.8149 19.6801 29.8149 19.8646V24.478C29.8149 24.6623 29.9642 24.8119 30.149 24.8119H34.7621C34.9469 24.8119 35.0964 24.6623 35.0964 24.478V19.8646C35.0964 19.6801 34.9468 19.5306 34.7621 19.5306Z" fill="url(#paint2_linear)"/>
<path d="M27.3617 19.5306H22.7486C22.564 19.5306 22.4146 19.6801 22.4146 19.8646V24.478C22.4146 24.6623 22.564 24.8119 22.7486 24.8119H27.3617C27.5461 24.8119 27.6955 24.6623 27.6955 24.478V19.8646C27.6956 19.6801 27.5461 19.5306 27.3617 19.5306Z" fill="url(#paint3_linear)"/>
<path d="M34.7621 12.6107H30.149C29.9642 12.6107 29.8149 12.7602 29.8149 12.9446V17.5579C29.8149 17.7423 29.9642 17.8919 30.149 17.8919H34.7621C34.9469 17.8919 35.0964 17.7423 35.0964 17.5579V12.9446C35.0964 12.7602 34.9468 12.6107 34.7621 12.6107Z" fill="url(#paint4_linear)"/>
<path d="M27.3617 12.6107H22.7486C22.564 12.6107 22.4146 12.7602 22.4146 12.9446V17.5579C22.4146 17.7423 22.564 17.8919 22.7486 17.8919H27.3617C27.5461 17.8919 27.6955 17.7423 27.6955 17.5579V12.9446C27.6956 12.7602 27.5461 12.6107 27.3617 12.6107Z" fill="url(#paint5_linear)"/>
<path d="M12.7102 9.62054H8.55216C8.30629 9.62054 8.10693 9.82001 8.10693 10.0659V15.3396C8.10693 15.5855 8.30629 15.7849 8.55216 15.7849H12.7102C12.9561 15.7849 13.1554 15.5856 13.1554 15.3396V10.0659C13.1554 9.82001 12.956 9.62054 12.7102 9.62054Z" fill="url(#paint6_linear)"/>
<path d="M12.7102 5.98929H11.299V1.15221C11.299 0.783358 10.9999 0.484375 10.631 0.484375C10.2621 0.484375 9.9631 0.783358 9.9631 1.15221V5.98929H8.55216C8.30629 5.98929 8.10693 6.18865 8.10693 6.43462V7.60279C8.10693 7.84854 8.30629 8.04801 8.55216 8.04801H12.7102C12.9561 8.04801 13.1554 7.84854 13.1554 7.60279V6.43462C13.1554 6.18865 12.956 5.98929 12.7102 5.98929Z" fill="url(#paint7_linear)"/>
<path d="M54.594 25.0726C54.545 24.9844 54.452 24.9297 54.351 24.9297H45.4762C45.3907 24.9297 45.3097 24.9692 45.257 25.0366L44.0803 26.5423H0.907275C0.814704 26.5423 0.728414 26.5883 0.676508 26.6651C0.624822 26.7418 0.614463 26.8394 0.649177 26.9251C0.649177 26.9251 4.41893 36.2381 5.67779 39.3416C5.72044 39.4466 5.82249 39.5153 5.93578 39.5153H45.6463C45.7428 39.5153 45.8409 39.4819 45.9014 39.3836C48.0657 35.8718 54.5874 25.3546 54.5874 25.3546C54.6405 25.2687 54.643 25.1608 54.594 25.0726ZM36.8664 32.0391C36.2632 32.0391 35.7738 31.5499 35.7738 30.9465C35.7738 30.3429 36.2632 29.8538 36.8664 29.8538C37.47 29.8538 37.9592 30.343 37.9592 30.9465C37.9592 31.5498 37.4701 32.0391 36.8664 32.0391ZM42.1631 32.0391C41.5594 32.0391 41.0703 31.5499 41.0703 30.9465C41.0703 30.3429 41.5594 29.8538 42.1631 29.8538C42.7663 29.8538 43.2554 30.343 43.2554 30.9465C43.2554 31.5498 42.7662 32.0391 42.1631 32.0391Z" fill="url(#paint8_linear)"/>
<defs>
<linearGradient id="paint0_linear" x1="3.43156" y1="19.2348" x2="21.2263" y2="20.5351" gradientUnits="userSpaceOnUse">
<stop stop-color="#474FA0"/>
<stop offset="1" stop-color="#868DD9"/>
</linearGradient>
<linearGradient id="paint1_linear" x1="37.2068" y1="20.8749" x2="43.7809" y2="21.1217" gradientUnits="userSpaceOnUse">
<stop stop-color="#474FA0"/>
<stop offset="1" stop-color="#868DD9"/>
</linearGradient>
<linearGradient id="paint2_linear" x1="29.8059" y1="20.8749" x2="36.3806" y2="21.1218" gradientUnits="userSpaceOnUse">
<stop stop-color="#474FA0"/>
<stop offset="1" stop-color="#868DD9"/>
</linearGradient>
<linearGradient id="paint3_linear" x1="22.4055" y1="20.8749" x2="28.9797" y2="21.1217" gradientUnits="userSpaceOnUse">
<stop stop-color="#474FA0"/>
<stop offset="1" stop-color="#868DD9"/>
</linearGradient>
<linearGradient id="paint4_linear" x1="29.8059" y1="13.9549" x2="36.3806" y2="14.2018" gradientUnits="userSpaceOnUse">
<stop stop-color="#474FA0"/>
<stop offset="1" stop-color="#868DD9"/>
</linearGradient>
<linearGradient id="paint5_linear" x1="22.4055" y1="13.9549" x2="28.9797" y2="14.2018" gradientUnits="userSpaceOnUse">
<stop stop-color="#474FA0"/>
<stop offset="1" stop-color="#868DD9"/>
</linearGradient>
<linearGradient id="paint6_linear" x1="8.09832" y1="11.1896" x2="14.3859" y2="11.383" gradientUnits="userSpaceOnUse">
<stop stop-color="#474FA0"/>
<stop offset="1" stop-color="#868DD9"/>
</linearGradient>
<linearGradient id="paint7_linear" x1="8.09832" y1="2.4096" x2="14.3879" y2="2.56725" gradientUnits="userSpaceOnUse">
<stop stop-color="#474FA0"/>
<stop offset="1" stop-color="#868DD9"/>
</linearGradient>
<linearGradient id="paint8_linear" x1="0.536738" y1="28.6423" x2="66.5781" y2="37.8243" gradientUnits="userSpaceOnUse">
<stop stop-color="#474FA0"/>
<stop offset="1" stop-color="#868DD9"/>
</linearGradient>
</defs>
</svg>
