<svg width="22" height="22" viewBox="0 0 22 22" fill="none" xmlns="http://www.w3.org/2000/svg">
<path d="M14.4656 8.71419C15.9243 7.38435 17.8968 5.58581 18.0766 1.28906H19.3789V0H2.62109V1.28906H3.92343C4.10321 5.58581 6.07574 7.38435 7.53436 8.71419C8.5128 9.60627 9.06641 10.1523 9.06641 11C9.06641 11.8477 8.5128 12.3937 7.53436 13.2858C6.07574 14.6156 4.10321 16.4142 3.92343 20.7109H2.62109V22H19.3789V20.7109H18.0766C17.8968 16.4142 15.9243 14.6156 14.4656 13.2858C13.4872 12.3937 12.9336 11.8477 12.9336 11C12.9336 10.1523 13.4872 9.60627 14.4656 8.71419ZM10.3555 15.8313C10.1564 15.8724 9.95973 15.9322 9.76779 16.0116L5.81995 17.6452C6.46465 16.0059 7.50303 15.0588 8.40284 14.2384C9.40702 13.3229 10.3555 12.4581 10.3555 11V15.8313ZM13.5972 14.2384C14.497 15.0588 15.5353 16.0059 16.1801 17.6452L12.2322 16.0115C12.0403 15.9321 11.8436 15.8724 11.6445 15.8313V11C11.6445 12.4581 12.593 13.3229 13.5972 14.2384ZM5.7973 4.29688C5.48565 3.48481 5.27042 2.5043 5.21409 1.28906H16.7859C16.7295 2.5043 16.5144 3.48481 16.2027 4.29688H5.7973Z" fill="white"/>
</svg>
