<svg width="49" height="48" viewBox="0 0 49 48" fill="none" xmlns="http://www.w3.org/2000/svg">
<g clip-path="url(#clip0)">
<path d="M38.2193 9.21814H35.4012C34.6225 9.21814 33.9922 9.8352 33.9922 10.5978C33.9922 11.3604 34.6224 11.9775 35.4012 11.9775H38.2193C38.9981 11.9775 39.6283 11.3605 39.6283 10.5978C39.6282 9.8352 38.9981 9.21814 38.2193 9.21814Z" fill="white"/>
<path d="M23.9804 4.46215L22.5714 1.70283C22.2206 1.02106 21.377 0.747597 20.6807 1.08578C19.9844 1.42662 19.7024 2.25527 20.0505 2.93704L21.4596 5.69636C21.8072 6.37538 22.6493 6.65435 23.3503 6.31341C24.0464 5.97257 24.3285 5.14392 23.9804 4.46215Z" fill="white"/>
<path d="M33.213 1.08576C32.5194 0.74758 31.6705 1.02113 31.3223 1.70282L29.9133 4.46213C29.5652 5.14391 29.8473 5.97247 30.5435 6.3134C31.2465 6.65525 32.0875 6.37307 32.4341 5.69634L33.8432 2.93702C34.1913 2.25525 33.9092 1.4266 33.213 1.08576Z" fill="white"/>
<path d="M18.4927 9.21814H15.6747C14.8959 9.21814 14.2656 9.8352 14.2656 10.5978C14.2656 11.3604 14.8958 11.9775 15.6747 11.9775H18.4927C19.2715 11.9775 19.9018 11.3605 19.9018 10.5978C19.9018 9.8352 19.2715 9.21814 18.4927 9.21814Z" fill="white"/>
<path d="M10.0389 23.1068H4.40271C3.62459 23.1068 2.99365 23.7245 2.99365 24.4865V46.561C2.99365 47.323 3.62449 47.9408 4.40271 47.9408H10.0388C10.8169 47.9408 11.4478 47.3231 11.4478 46.561V24.4864C11.4478 23.7245 10.8171 23.1068 10.0389 23.1068Z" fill="white"/>
<path d="M45.236 26.764C44.9874 24.6238 42.9457 23.1069 40.7458 23.1069H29.7607C30.6943 21.47 31.1953 16.8404 31.1731 14.9493C31.1363 11.8188 28.4887 9.31018 25.2915 9.31018H24.1289C23.3501 9.31018 22.7198 9.92724 22.7198 10.6899C22.7198 13.8803 21.4511 19.6389 19.0583 21.9819C17.4478 23.5589 16.071 24.1303 14.2656 25.0138V45.7156C17.0297 46.6176 20.5391 47.9409 25.8882 47.9409H35.1053C38.1423 47.9409 40.5076 45.1867 39.3308 42.2768C41.1237 41.7985 42.446 40.1884 42.446 38.2832C42.446 37.7456 42.34 37.231 42.1488 36.758C45.1703 35.952 46.2824 32.2989 44.1853 30.0052C44.9558 29.1624 45.3806 28.0096 45.236 26.764Z" fill="white"/>
</g>
<defs>
<clipPath id="clip0">
<rect width="48" height="47" fill="white" transform="translate(0.128906 0.940918)"/>
</clipPath>
</defs>
</svg>
