<svg width="172" height="35" viewBox="0 0 172 35" fill="none" xmlns="http://www.w3.org/2000/svg">
<g clip-path="url(#clip0)">
<path d="M50.3093 34.4268C50.3093 36.1609 122.911 35.4489 122.911 33.225C122.315 31.3563 50.3093 32.1571 50.3093 34.4268Z" fill="white"/>
<path d="M89.831 0.923827C74.7484 4.33972 61.2827 10.9702 56.4352 13.8585C79.7525 4.86446 91.6988 2.29663 104.592 3.62535C117.485 4.95408 130.923 7.73808 139.76 10.7752C146.83 13.2048 155.479 15.3742 158.919 16.1552C154.24 16.7863 151.75 15.9974 144.505 14.893C137.26 13.7886 129.26 14.9719 120.959 17.0229C114.318 18.6638 106.129 19.4161 102.864 19.5872C106.297 19.8805 114.874 20.0892 121.725 18.5783C130.287 16.6897 141.049 16.2792 147.019 18.0857C151.796 19.5309 155.713 19.7279 157.074 19.6458C166.753 18.0036 171.057 12.2282 172 9.54583C164.066 15.9507 155.896 11.7629 150.24 10.1206C144.584 8.47835 108.684 -3.34604 89.831 0.923827Z" fill="white"/>
<path d="M48.3848 15.2299C23.396 17.0077 5.71627 24.2512 0 27.6508C16.9896 21.6808 40.9542 16.6653 69.3798 18.2919C97.8053 19.9186 123.153 14.3031 132.273 11.2921C82.4515 18.3516 79.6207 13.0076 48.3848 15.2299Z" fill="white"/>
<path d="M15.7119 24.3153C9.78272 26.1219 6.94015 28.5182 6.26001 29.4905C7.27021 29.5741 10.7609 29.3964 16.642 28.0163C23.9935 26.2912 25.4338 21.7747 24.5036 21.8061C23.5734 21.8374 23.1233 22.057 15.7119 24.3153Z" fill="white"/>
</g>
<defs>
<clipPath id="clip0">
<rect width="172" height="35" fill="white"/>
</clipPath>
</defs>
</svg>
