<svg width="173" height="59" viewBox="0 0 173 59" fill="none" xmlns="http://www.w3.org/2000/svg">
<path d="M50.7894 33.6119C50.7894 35.2659 123.176 34.5868 123.176 32.4656C122.582 30.6831 50.7894 31.447 50.7894 33.6119Z" fill="white"/>
<path d="M90.1942 1.65559C75.1562 4.91379 61.7303 11.2382 56.8971 13.9931C80.1455 5.41431 92.0564 2.96502 104.911 4.2324C117.766 5.49979 131.164 8.15527 139.976 11.0521C147.025 13.3697 155.648 15.4389 159.078 16.1838C154.413 16.7858 151.93 16.0333 144.706 14.9799C137.483 13.9265 129.507 15.0551 121.23 17.0115C114.608 18.5766 106.444 19.2942 103.189 19.4574C106.611 19.7371 115.164 19.9362 121.993 18.4951C130.531 16.6937 141.261 16.302 147.213 18.0252C151.975 19.4036 155.881 19.5916 157.239 19.5133C166.888 17.9468 171.18 12.4381 172.12 9.87956C164.209 15.9888 156.064 11.9943 150.425 10.4278C144.785 8.86136 108.992 -2.41715 90.1942 1.65559Z" fill="white"/>
<path d="M48.8705 15.3012C23.9557 16.9969 6.32827 23.9061 0.628906 27.1487C17.5683 21.4543 41.462 16.6704 69.8034 18.2219C98.1449 19.7734 123.417 14.4172 132.511 11.5452C82.8365 18.2788 80.0141 13.1815 48.8705 15.3012Z" fill="white"/>
<path d="M16.2943 23.9672C10.3827 25.6904 7.5485 27.9761 6.87037 28.9035C7.87758 28.9833 11.3579 28.8137 17.2217 27.4974C24.5514 25.8519 25.9875 21.5439 25.06 21.5738C24.1326 21.6037 23.6838 21.8131 16.2943 23.9672Z" fill="white"/>
<path d="M35.5713 45.0159H40.9833C42.3408 45.0159 43.5455 45.2849 44.5973 45.8231C45.6491 46.3612 46.4625 47.1195 47.0373 48.0979C47.6244 49.0641 47.9179 50.1771 47.9179 51.4368C47.9179 52.6965 47.6244 53.8156 47.0373 54.794C46.4625 55.7602 45.6491 56.5124 44.5973 57.0505C43.5455 57.5887 42.3408 57.8577 40.9833 57.8577H35.5713V45.0159ZM40.8732 56.2617C41.9128 56.2617 42.8239 56.0599 43.6067 55.6563C44.4017 55.2527 45.0132 54.6901 45.4412 53.9685C45.8693 53.2347 46.0833 52.3908 46.0833 51.4368C46.0833 50.4828 45.8693 49.6451 45.4412 48.9235C45.0132 48.1896 44.4017 47.6209 43.6067 47.2173C42.8239 46.8137 41.9128 46.6119 40.8732 46.6119H37.4059V56.2617H40.8732Z" fill="white"/>
<path d="M59.2586 53.0512C59.2586 53.1857 59.2464 53.3631 59.2219 53.5832H51.3333C51.4434 54.4394 51.8164 55.1304 52.4524 55.6563C53.1006 56.17 53.9017 56.4268 54.8557 56.4268C56.0175 56.4268 56.9532 56.0354 57.6625 55.2527L58.6348 56.3901C58.1945 56.9038 57.6442 57.2952 56.9837 57.5642C56.3355 57.8333 55.6078 57.9678 54.8006 57.9678C53.7733 57.9678 52.8621 57.7599 52.0671 57.3441C51.2722 56.916 50.6545 56.3228 50.2142 55.5646C49.7862 54.8063 49.5721 53.9501 49.5721 52.9962C49.5721 52.0544 49.7801 51.2044 50.1959 50.4461C50.6239 49.6879 51.2049 49.1008 51.9387 48.685C52.6848 48.2569 53.5225 48.0429 54.4521 48.0429C55.3816 48.0429 56.2071 48.2569 56.9287 48.685C57.6625 49.1008 58.2312 49.6879 58.6348 50.4461C59.0507 51.2044 59.2586 52.0728 59.2586 53.0512ZM54.4521 49.5289C53.6082 49.5289 52.8988 49.7857 52.324 50.2994C51.7614 50.8131 51.4311 51.4857 51.3333 52.3174H57.5708C57.473 51.498 57.1366 50.8314 56.5618 50.3177C55.9992 49.7918 55.2959 49.5289 54.4521 49.5289Z" fill="white"/>
<path d="M64.9761 48.0429C66.3214 48.0429 67.3488 48.3731 68.0582 49.0335C68.7797 49.694 69.1405 50.6785 69.1405 51.9872V57.8577H67.4711V56.5736C67.1776 57.0261 66.7556 57.3746 66.2052 57.6193C65.6671 57.8516 65.025 57.9678 64.279 57.9678C63.1905 57.9678 62.316 57.7049 61.6556 57.179C61.0073 56.6531 60.6832 55.962 60.6832 55.1059C60.6832 54.2498 60.9951 53.5649 61.6189 53.0512C62.2426 52.5253 63.2333 52.2624 64.5908 52.2624H67.3794V51.9138C67.3794 51.1555 67.1592 50.5746 66.7189 50.171C66.2786 49.7674 65.6304 49.5656 64.7743 49.5656C64.1995 49.5656 63.6369 49.6634 63.0865 49.8591C62.5361 50.0425 62.0714 50.2933 61.6922 50.6113L60.9584 49.2904C61.4599 48.8868 62.0592 48.581 62.7563 48.3731C63.4534 48.1529 64.1934 48.0429 64.9761 48.0429ZM64.5725 56.6102C65.2452 56.6102 65.8261 56.4635 66.3153 56.17C66.8045 55.8642 67.1592 55.4361 67.3794 54.8858V53.5282H64.6642C63.1721 53.5282 62.4261 54.0296 62.4261 55.0325C62.4261 55.5217 62.6156 55.907 62.9948 56.1883C63.3739 56.4696 63.8998 56.6102 64.5725 56.6102Z" fill="white"/>
<path d="M72.3997 44.2453H74.1609V57.8577H72.3997V44.2453Z" fill="white"/>
<path d="M86.3111 53.0512C86.3111 53.1857 86.2989 53.3631 86.2744 53.5832H78.3858C78.4959 54.4394 78.8689 55.1304 79.5049 55.6563C80.1531 56.17 80.9542 56.4268 81.9082 56.4268C83.0701 56.4268 84.0057 56.0354 84.7151 55.2527L85.6874 56.3901C85.2471 56.9038 84.6967 57.2952 84.0363 57.5642C83.3881 57.8333 82.6604 57.9678 81.8531 57.9678C80.8258 57.9678 79.9146 57.7599 79.1197 57.3441C78.3247 56.916 77.7071 56.3228 77.2668 55.5646C76.8387 54.8063 76.6247 53.9501 76.6247 52.9962C76.6247 52.0544 76.8326 51.2044 77.2484 50.4461C77.6765 49.6879 78.2574 49.1008 78.9912 48.685C79.7373 48.2569 80.5751 48.0429 81.5046 48.0429C82.4341 48.0429 83.2596 48.2569 83.9812 48.685C84.7151 49.1008 85.2838 49.6879 85.6874 50.4461C86.1032 51.2044 86.3111 52.0728 86.3111 53.0512ZM81.5046 49.5289C80.6607 49.5289 79.9513 49.7857 79.3765 50.2994C78.8139 50.8131 78.4837 51.4857 78.3858 52.3174H84.6233C84.5255 51.498 84.1892 50.8314 83.6143 50.3177C83.0517 49.7918 82.3485 49.5289 81.5046 49.5289Z" fill="white"/>
<path d="M90.4445 49.7674C90.7502 49.2048 91.2027 48.7767 91.802 48.4832C92.4013 48.1896 93.129 48.0429 93.9852 48.0429V49.749C93.8873 49.7368 93.7528 49.7307 93.5816 49.7307C92.6276 49.7307 91.8754 50.0181 91.3251 50.5929C90.7869 51.1555 90.5178 51.9627 90.5178 53.0145V57.8577H88.7567V48.1346H90.4445V49.7674Z" fill="white"/>
<path d="M107.207 58.0045C105.923 58.0045 104.761 57.7232 103.721 57.1606C102.694 56.5858 101.887 55.803 101.3 54.8124C100.713 53.8095 100.419 52.6843 100.419 51.4368C100.419 50.1893 100.713 49.0702 101.3 48.0796C101.887 47.0767 102.7 46.2939 103.74 45.7313C104.779 45.1565 105.941 44.8691 107.225 44.8691C108.228 44.8691 109.146 45.0403 109.977 45.3828C110.809 45.713 111.518 46.2083 112.105 46.8688L110.913 48.0245C109.947 47.0094 108.742 46.5018 107.299 46.5018C106.345 46.5018 105.483 46.7159 104.712 47.1439C103.941 47.572 103.336 48.1652 102.896 48.9235C102.468 49.6695 102.254 50.5073 102.254 51.4368C102.254 52.3663 102.468 53.2102 102.896 53.9685C103.336 54.7145 103.941 55.3016 104.712 55.7297C105.483 56.1577 106.345 56.3718 107.299 56.3718C108.73 56.3718 109.934 55.8581 110.913 54.8307L112.105 55.9865C111.518 56.6469 110.803 57.1484 109.959 57.4908C109.127 57.8333 108.21 58.0045 107.207 58.0045Z" fill="white"/>
<path d="M117.881 48.0429C119.226 48.0429 120.254 48.3731 120.963 49.0335C121.684 49.694 122.045 50.6785 122.045 51.9872V57.8577H120.376V56.5736C120.082 57.0261 119.66 57.3746 119.11 57.6193C118.572 57.8516 117.93 57.9678 117.184 57.9678C116.095 57.9678 115.221 57.7049 114.56 57.179C113.912 56.6531 113.588 55.962 113.588 55.1059C113.588 54.2498 113.9 53.5649 114.524 53.0512C115.147 52.5253 116.138 52.2624 117.496 52.2624H120.284V51.9138C120.284 51.1555 120.064 50.5746 119.624 50.171C119.183 49.7674 118.535 49.5656 117.679 49.5656C117.104 49.5656 116.542 49.6634 115.991 49.8591C115.441 50.0425 114.976 50.2933 114.597 50.6113L113.863 49.2904C114.365 48.8868 114.964 48.581 115.661 48.3731C116.358 48.1529 117.098 48.0429 117.881 48.0429ZM117.477 56.6102C118.15 56.6102 118.731 56.4635 119.22 56.17C119.709 55.8642 120.064 55.4361 120.284 54.8858V53.5282H117.569C116.077 53.5282 115.331 54.0296 115.331 55.0325C115.331 55.5217 115.52 55.907 115.899 56.1883C116.279 56.4696 116.805 56.6102 117.477 56.6102Z" fill="white"/>
<path d="M126.992 49.7674C127.298 49.2048 127.751 48.7767 128.35 48.4832C128.949 48.1896 129.677 48.0429 130.533 48.0429V49.749C130.435 49.7368 130.301 49.7307 130.129 49.7307C129.175 49.7307 128.423 50.0181 127.873 50.5929C127.335 51.1555 127.066 51.9627 127.066 53.0145V57.8577H125.304V48.1346H126.992V49.7674Z" fill="white"/>
<path d="M135.564 57.9678C134.769 57.9678 134.004 57.8639 133.271 57.6559C132.537 57.4358 131.962 57.1606 131.546 56.8304L132.28 55.4361C132.708 55.7419 133.228 55.9865 133.839 56.17C134.451 56.3534 135.068 56.4451 135.692 56.4451C137.233 56.4451 138.004 56.0048 138.004 55.1243C138.004 54.8307 137.9 54.5984 137.692 54.4271C137.484 54.2559 137.221 54.1336 136.903 54.0602C136.597 53.9746 136.157 53.8829 135.582 53.785C134.799 53.6627 134.157 53.5221 133.656 53.3631C133.167 53.2041 132.745 52.935 132.39 52.5559C132.035 52.1767 131.858 51.6447 131.858 50.9598C131.858 50.0792 132.225 49.376 132.959 48.8501C133.693 48.3119 134.677 48.0429 135.912 48.0429C136.561 48.0429 137.209 48.1224 137.857 48.2814C138.505 48.4404 139.037 48.6544 139.453 48.9235L138.701 50.3177C137.906 49.804 136.97 49.5472 135.894 49.5472C135.148 49.5472 134.579 49.6695 134.188 49.9141C133.796 50.1587 133.601 50.4828 133.601 50.8864C133.601 51.2044 133.711 51.4551 133.931 51.6386C134.151 51.8221 134.42 51.9566 134.738 52.0422C135.068 52.1278 135.527 52.2257 136.114 52.3357C136.897 52.4703 137.527 52.617 138.004 52.776C138.493 52.9228 138.909 53.1796 139.251 53.5465C139.594 53.9135 139.765 54.4271 139.765 55.0876C139.765 55.9682 139.386 56.6714 138.627 57.1973C137.881 57.711 136.86 57.9678 135.564 57.9678Z" fill="white"/>
</svg>
