<svg width="290" height="62" viewBox="0 0 290 62" fill="none" xmlns="http://www.w3.org/2000/svg">
<path d="M58.7912 46.1636L53.7551 49.521C54.8295 51.6697 57.0006 53.326 57.9519 53.8856C58.5674 53.6617 59.7984 52.6433 59.7984 50.3603C59.7984 48.0773 59.1269 46.6112 58.7912 46.1636Z" fill="#4B53A3"/>
<path d="M57.4479 30.2163C58.6229 31.5594 59.5742 34.5809 59.4623 35.9239L58.7908 36.4276L53.9226 33.7416C54.5941 31.3914 57.4479 30.2163 57.4479 30.2163Z" fill="#4B53A3"/>
<path fill-rule="evenodd" clip-rule="evenodd" d="M120.904 47.0233L76.2504 48.3662L67.1854 42.323C66.5699 35.2165 62.8544 22.1115 51.5736 25.8717C49.1857 27.0265 46.4368 29.7328 44.6909 35.1046L17.3283 40.3085L12.7958 31.2436L11.9564 33.7616L9.10267 26.7111C4.40226 26.9797 1.6595 31.0757 0.876139 32.9223C-1.30616 39.9728 0.709207 44.5053 5.57741 47.8626C9.47198 50.5486 15.0341 49.5413 17.3283 48.702L48.7198 55.7525C52.7487 60.9564 58.6241 61.4601 63.4923 60.7886C67.3869 60.2514 69.9273 57.2074 70.7107 55.7525L120.904 47.0233ZM44.522 37.7905C44.2982 39.8049 44.052 44.7739 44.8578 48.5341L20.0132 46.8554L16.9915 45.0089L36.6322 45.1767L39.6539 44.5053L18.6702 43.3302L41.5004 41.1479C41.8921 40.1407 43.0447 38.0591 44.522 37.7905ZM63.1188 41.7991C63.1188 49.4941 59.3609 55.7322 54.7253 55.7322C50.0897 55.7322 46.3318 49.4941 46.3318 41.7991C46.3318 34.104 50.0897 27.8659 54.7253 27.8659C59.3609 27.8659 63.1188 34.104 63.1188 41.7991ZM8.19373 28.5374C6.29122 29.3208 2.35188 31.8948 1.8147 35.9236C1.19937 40.5386 2.83956 42.7571 3.37652 43.4834C3.42551 43.5497 3.46532 43.6035 3.4934 43.6456C3.82913 44.1492 5.84356 47.1709 10.7118 47.8423C14.6063 48.3795 15.1323 46.947 14.9085 46.1637L13.0619 45.8279V40.9597C11.7749 41.0716 9.23451 40.7918 9.36881 38.7774C9.45013 37.5576 10.1618 37.0469 10.6831 36.6727C11.238 36.2746 11.5772 36.0311 10.7118 35.2522C9.03307 33.7413 6.6829 32.902 6.6829 32.902C6.6829 32.902 8.75329 31.2792 9.36881 31.2233L8.19373 28.5374Z" fill="#4B53A3"/>
<path fill-rule="evenodd" clip-rule="evenodd" d="M21.5238 34.2657L41.836 30.2369C43.011 28.2224 46.1334 23.5893 49.2222 21.1719L12.4588 23.1864L13.8018 29.5654C13.0744 28.2784 11.0487 25.5701 8.76572 25.0329C6.4827 24.4957 4.34517 26.0401 3.56178 26.8795C3.50582 26.3759 3.72965 25.0665 5.0726 23.8578C6.75129 22.347 9.60491 20.8362 20.5164 19.1575C20.6283 18.9337 20.785 18.4525 20.5164 18.3182C20.1807 18.1503 18.8377 17.1431 20.0128 14.7929C21.1879 12.4427 25.0489 12.6106 26.0561 13.45C26.2799 13.5618 26.7947 13.7521 27.0633 13.6178C27.1128 13.5931 27.2714 13.4264 27.5371 13.1472C29.0758 11.5306 34.2046 6.14189 42.5073 2.7063C50.2964 -0.516793 72.8356 -0.203437 83.1316 0.356127C87.2165 0.859715 98.0048 3.04197 108.48 7.74231L108.816 8.07805C110.998 8.02209 117.176 8.21235 124.427 9.421C131.679 10.6297 134.276 12.6105 134.667 13.4499C134.388 13.8975 133.828 14.9943 133.828 15.8L133.828 15.8259L133.828 15.8446C133.828 15.8642 133.828 15.8845 133.828 15.9054C133.827 15.9325 133.827 15.9605 133.827 15.9896L133.826 16.0446L133.826 16.0546C133.813 17.2267 133.785 19.7985 135.339 21.5076C135.395 21.6195 134.936 21.8433 132.653 21.8433C131.758 21.6195 129.732 20.6011 128.792 18.3181L107.808 17.9823L103.947 22.8505H85.1093L84.4746 26.3758L68.6949 32.9227L81.6208 24.6971V15.9679L85.3139 13.9535L68.3591 16.6394L74.906 23.6899C72.388 22.3469 66.2776 19.5939 61.9801 19.3253C56.6083 18.9896 51.5722 21.6755 46.8719 27.5509C46.1444 28.614 44.5217 31.3111 43.8502 33.5942L21.5238 34.2657ZM26.1872 18.1216C28.8172 14.3166 36.058 6.10221 43.9814 3.68489C51.9048 1.26758 57.5788 2.67768 59.4254 3.68489C60.9362 4.35638 63.9242 7.04231 63.7899 12.4141L26.1872 18.1216ZM85.7807 18.9692L86.1164 20.6479L102.568 20.3122L105.421 16.9548H88.6345L85.7807 18.9692ZM132.616 19.6407V16.7869L130.434 18.1299L132.616 19.9764V19.6407ZM84.2699 10.24C80.1067 7.55411 75.3728 5.09203 73.5263 4.19672L92.9991 4.02886L104.246 7.72198L105.086 8.89706L84.2699 10.24ZM92.1597 14.6046L106.093 14.2689L107.772 16.1154L128.755 16.4512L131.609 14.6046C129.762 13.4855 124.491 11.2137 118.179 11.0794C110.29 10.9115 99.546 11.4151 92.1597 14.6046Z" fill="#F53F2A"/>
<path d="M50.3607 3.18158C41.6315 3.31587 33.6298 10.1761 30.72 13.5895C37.3005 7.68053 44.6532 5.41981 47.507 5.02807L40.6243 15.9396L44.6532 15.2681L50.8643 4.69233C58.3849 4.82662 60.1531 8.55332 60.0971 10.3999L49.8571 13.5895L62.2794 11.4072C61.9437 8.38552 61.2722 3.01371 50.3607 3.18158Z" fill="#F53F2A"/>
<path d="M52.2435 40.4565C52.2435 37.9049 52.8591 36.0359 53.2507 35.4204L56.2724 39.1135L56.1045 39.785L52.2435 40.4565Z" fill="#4B53A3"/>
<path d="M61.1405 44.4851V38.2739C59.8535 38.5537 57.7831 39.1133 57.7831 41.4634C57.7832 43.6457 60.1893 44.2613 61.1405 44.4851Z" fill="#4B53A3"/>
<path d="M56.2735 43.8137C55.3222 45.1007 53.3861 47.6746 53.2518 47.6746C52.0431 45.9288 51.9648 43.4779 52.0767 42.4707L56.2735 43.8137Z" fill="#4B53A3"/>
<path d="M6.21116 33.5742L8.22559 36.428L5.03607 37.0995C5.03607 35.4879 5.81946 34.0778 6.21116 33.5742Z" fill="#4B53A3"/>
<path d="M6.37862 42.4708C5.30426 41.5307 5.14758 39.9527 5.20354 39.2812L8.22521 39.7849L6.37862 42.4708Z" fill="#4B53A3"/>
<path d="M10.5752 41.9673L7.55359 43.8138C8.62795 45.4254 10.3514 45.7164 11.0788 45.6604L10.5752 41.9673Z" fill="#4B53A3"/>
<path d="M202.832 38.9769C202.006 42.7945 199.161 44.7032 194.297 44.7032C191.636 44.7032 189.323 43.7947 187.359 41.9777C187.102 41.7391 187.084 41.4822 187.304 41.2069L189.727 38.1234C189.929 37.8298 190.195 37.8023 190.525 38.0409C191.957 39.1971 193.434 39.7753 194.958 39.7753C196.499 39.7753 197.335 39.3348 197.463 38.4538C197.518 38.05 197.344 37.7288 196.94 37.4902C196.555 37.2333 195.802 36.9488 194.682 36.6368C192.829 36.1045 191.406 35.2878 190.415 34.1866C189.424 33.067 189.075 31.6262 189.369 29.8643C189.681 27.9371 190.553 26.5239 191.984 25.6246C193.434 24.7069 195.215 24.248 197.325 24.248C199.895 24.248 202.134 24.9271 204.043 26.2853C204.355 26.4872 204.392 26.7441 204.153 27.0562L201.483 30.2497C201.262 30.4883 200.996 30.525 200.684 30.3598C199.418 29.5339 198.096 29.121 196.72 29.121C195.508 29.121 194.848 29.488 194.738 30.2222C194.682 30.5893 194.848 30.8921 195.233 31.1307C195.637 31.3693 196.307 31.6354 197.243 31.9291C197.573 32.0392 197.839 32.131 198.041 32.2044C198.243 32.2594 198.518 32.3604 198.867 32.5072C199.216 32.6357 199.509 32.7642 199.748 32.8926C199.987 33.0211 200.262 33.1771 200.574 33.3607C200.886 33.5258 201.143 33.7186 201.345 33.9388C201.565 34.1407 201.785 34.3701 202.006 34.6271C202.244 34.884 202.419 35.1685 202.529 35.4805C202.657 35.7742 202.767 36.0954 202.859 36.4441C202.951 36.7928 202.988 37.1874 202.969 37.6279C202.969 38.05 202.923 38.4997 202.832 38.9769Z" fill="#F53F2A"/>
<path d="M216.165 31.9841L217.376 25.129C217.431 24.7987 217.624 24.6335 217.954 24.6335H222.139C222.524 24.6335 222.689 24.8354 222.634 25.2391L219.358 43.8223C219.303 44.1526 219.11 44.3178 218.78 44.3178H214.595C214.21 44.3178 214.045 44.1159 214.1 43.7121L215.284 36.8295H210.961L209.723 43.8223C209.667 44.1526 209.475 44.3178 209.144 44.3178H204.96C204.574 44.3178 204.409 44.1159 204.464 43.7121L207.74 25.129C207.795 24.7987 207.988 24.6335 208.318 24.6335H212.503C212.889 24.6335 213.054 24.8354 212.999 25.2391L211.815 31.9841H216.165Z" fill="#F53F2A"/>
<path d="M239.261 37.2149C238.839 39.6193 237.838 41.473 236.26 42.7761C234.681 44.0609 232.617 44.7032 230.065 44.7032C227.716 44.7032 225.945 43.914 224.752 42.3356C223.559 40.7572 223.192 38.7016 223.651 36.1688L224.477 31.5436C224.881 29.2494 225.872 27.4599 227.45 26.1752C229.047 24.8904 231.084 24.248 233.562 24.248C235.911 24.248 237.691 25.0005 238.903 26.5056C240.114 27.9922 240.49 30.0478 240.032 32.6724L239.261 37.2149ZM228.964 36.802C228.616 38.8025 229.258 39.8028 230.891 39.8028C231.699 39.8028 232.36 39.5459 232.874 39.032C233.387 38.5181 233.718 37.8114 233.865 36.9121L234.691 32.1218C235.039 30.1396 234.415 29.1485 232.819 29.1485C231.185 29.1485 230.194 30.0937 229.845 31.9841L228.964 36.802Z" fill="#F53F2A"/>
<path d="M249.405 44.3178H244.559C244.21 44.3178 244.018 44.1435 243.981 43.7947L242.302 25.2116C242.283 24.8262 242.458 24.6335 242.825 24.6335H247.147C247.514 24.6335 247.698 24.817 247.698 25.1841L247.808 28.9558C247.9 31.8006 247.872 34.9666 247.725 38.4538H247.863C248.689 35.5906 249.753 32.4246 251.056 28.9558L252.405 25.3493C252.516 25.0556 252.727 24.9088 253.039 24.9088H257.719C258.049 24.9088 258.233 25.0831 258.269 25.4319L258.49 29.2861C258.655 32.0759 258.719 35.1318 258.682 38.4538H258.82C259.866 34.9299 260.922 31.6997 261.986 28.7631L263.363 25.074C263.473 24.7803 263.684 24.6335 263.996 24.6335H268.511C268.713 24.6335 268.85 24.6977 268.924 24.8262C269.016 24.9363 269.025 25.0831 268.951 25.2667L260.72 43.9049C260.61 44.1802 260.389 44.3178 260.059 44.3178H255.214C254.883 44.3178 254.7 44.1435 254.663 43.7947L254.525 40.1056C254.47 38.7108 254.479 35.8292 254.553 31.4611H254.388C253.892 33.6268 253.204 35.8568 252.323 38.151L250.065 43.8773C249.918 44.171 249.698 44.3178 249.405 44.3178Z" fill="#F53F2A"/>
<path d="M89.8264 44.3176H83.3567C82.9713 44.3176 82.8061 44.1158 82.8612 43.712L86.1373 25.1289C86.1924 24.7985 86.3851 24.6333 86.7154 24.6333H93.13C94.1579 24.6333 95.0939 24.7801 95.9382 25.0738C96.8008 25.3674 97.5625 25.8263 98.2232 26.4503C98.9023 27.056 99.3703 27.9186 99.6273 29.0382C99.8842 30.1394 99.8842 31.4242 99.6273 32.8925L98.9941 36.7192C98.4985 39.564 97.4799 41.5462 95.9382 42.6658C94.3965 43.767 92.3592 44.3176 89.8264 44.3176ZM90.6248 29.4787L88.8628 39.4723H90.845C91.5975 39.4723 92.194 39.252 92.6345 38.8115C93.075 38.371 93.3778 37.6277 93.543 36.5816L94.3414 32.1216C94.6534 30.3597 94.0477 29.4787 92.5244 29.4787H90.6248Z" fill="#4B53A3"/>
<path d="M116.763 25.239L116.13 28.9005C116.075 29.2309 115.873 29.3961 115.524 29.3961H108.559L108.064 32.039H113.928C114.331 32.039 114.506 32.2409 114.451 32.6447L113.79 36.1686C113.735 36.499 113.542 36.6642 113.212 36.6642H107.238L106.715 39.5273H114.065C114.451 39.5273 114.616 39.7292 114.561 40.133L113.955 43.8221C113.9 44.1525 113.707 44.3176 113.377 44.3176H101.209C100.823 44.3176 100.658 44.1158 100.713 43.712L104.017 25.1289C104.072 24.7985 104.264 24.6333 104.595 24.6333H116.268C116.653 24.6333 116.818 24.8352 116.763 25.239Z" fill="#4B53A3"/>
<path d="M132.32 44.3176H128.107C127.74 44.3176 127.548 44.1433 127.529 43.7946L127.309 41.3719H121.803L120.757 43.9047C120.665 44.18 120.454 44.3176 120.124 44.3176H115.553C115.352 44.3176 115.214 44.2534 115.141 44.1249C115.049 43.9965 115.049 43.8405 115.141 43.6569L124.033 25.0463C124.161 24.771 124.382 24.6333 124.694 24.6333H129.456C129.823 24.6333 130.035 24.7985 130.09 25.1289L132.843 43.7395C132.898 44.1249 132.723 44.3176 132.32 44.3176ZM126.401 30.4422H126.29C125.868 31.6352 125.042 33.7 123.813 36.6366H126.869C126.593 33.7 126.437 31.6352 126.401 30.4422Z" fill="#4B53A3"/>
<path d="M143.123 25.239L140.618 39.4723H147.115C147.5 39.4723 147.665 39.6742 147.61 40.0779L146.977 43.8221C146.922 44.1525 146.729 44.3176 146.399 44.3176H135.084C134.699 44.3176 134.533 44.1158 134.588 43.712L137.865 25.1289C137.92 24.7985 138.112 24.6333 138.443 24.6333H142.627C143.013 24.6333 143.178 24.8352 143.123 25.239Z" fill="#4B53A3"/>
<path d="M165.049 25.239L164.416 28.9005C164.361 29.2309 164.159 29.3961 163.81 29.3961H156.845L156.35 32.039H162.214C162.617 32.039 162.792 32.2409 162.737 32.6447L162.076 36.1686C162.021 36.499 161.828 36.6642 161.498 36.6642H155.524L155.001 39.5273H162.351C162.737 39.5273 162.902 39.7292 162.847 40.133L162.241 43.8221C162.186 44.1525 161.993 44.3176 161.663 44.3176H149.495C149.109 44.3176 148.944 44.1158 148.999 43.712L152.303 25.1289C152.358 24.7985 152.55 24.6333 152.881 24.6333H164.554C164.939 24.6333 165.104 24.8352 165.049 25.239Z" fill="#4B53A3"/>
<path d="M169.703 44.3176H165.491C165.106 44.3176 164.941 44.1158 164.996 43.712L168.244 25.1289C168.299 24.7985 168.492 24.6333 168.823 24.6333H175.375C177.632 24.6333 179.321 25.3216 180.44 26.6981C181.578 28.0563 181.973 29.7907 181.624 31.9014C181.202 34.5994 179.752 36.4898 177.274 37.5727L179.917 43.6844C180.101 44.1066 179.963 44.3176 179.504 44.3176H174.989C174.677 44.3176 174.466 44.1708 174.356 43.8772L172.484 38.2885H171.245L170.282 43.8221C170.227 44.1525 170.034 44.3176 169.703 44.3176ZM172.787 29.4511L172.044 33.5807H173.861C174.576 33.5807 175.118 33.4247 175.485 33.1127C175.87 32.8007 176.118 32.3051 176.228 31.6261C176.448 30.1761 175.889 29.4511 174.549 29.4511H172.787Z" fill="#4B53A3"/>
<path d="M281.494 26.385C281.653 25.8717 282.347 25.8717 282.506 26.385L284.03 31.2997C284.101 31.5293 284.305 31.6848 284.536 31.6848H289.467C289.982 31.6848 290.197 32.3756 289.78 32.6929L285.79 35.7303C285.604 35.8722 285.526 36.1237 285.597 36.3533L287.121 41.268C287.28 41.7814 286.719 42.2083 286.302 41.891L282.313 38.8536C282.126 38.7117 281.874 38.7117 281.687 38.8536L277.698 41.891C277.281 42.2083 276.72 41.7814 276.879 41.268L278.403 36.3533C278.474 36.1237 278.396 35.8722 278.21 35.7303L274.22 32.6929C273.803 32.3756 274.018 31.6848 274.533 31.6848H279.464C279.695 31.6848 279.899 31.5293 279.97 31.2997L281.494 26.385Z" fill="#4B53A3"/>
</svg>
