<svg width="274" height="58" viewBox="0 0 274 58" fill="none" xmlns="http://www.w3.org/2000/svg">
<path d="M55.5473 43.6167L50.7891 46.7888C51.8042 48.819 53.8555 50.384 54.7543 50.9126C55.3359 50.7012 56.499 49.7389 56.499 47.5819C56.499 45.4248 55.8646 44.0397 55.5473 43.6167Z" fill="#E9E9E9"/>
<path d="M54.2786 28.5493C55.3888 29.8183 56.2876 32.6731 56.1819 33.942L55.5474 34.4179L50.9478 31.8801C51.5822 29.6596 54.2786 28.5493 54.2786 28.5493Z" fill="#E9E9E9"/>
<path fill-rule="evenodd" clip-rule="evenodd" d="M114.233 44.429L72.0434 45.6978L63.4786 39.988C62.8971 33.2736 59.3866 20.8916 48.7281 24.4445C46.472 25.5355 43.8748 28.0925 42.2252 33.1679L16.3722 38.0847L12.0898 29.5199L11.2968 31.899L8.60045 25.2375C4.15938 25.4913 1.56794 29.3613 0.827801 31.106C-1.2341 37.7675 0.670078 42.0499 5.2697 45.2221C8.94939 47.7598 14.2046 46.8081 16.3722 46.0151L46.0318 52.6766C49.8384 57.5934 55.3897 58.0693 59.9893 57.4348C63.669 56.9273 66.0692 54.0512 66.8094 52.6766L114.233 44.429ZM42.0656 35.7056C41.8542 37.6089 41.6215 42.3037 42.3829 45.8565L18.909 44.2704L16.0541 42.5257L34.6111 42.6843L37.4661 42.0499L17.6401 40.9397L39.2107 38.8778C39.5808 37.9261 40.6699 35.9594 42.0656 35.7056ZM59.6364 39.493C59.6364 46.7635 56.0858 52.6574 51.706 52.6574C47.3262 52.6574 43.7756 46.7635 43.7756 39.493C43.7756 32.2225 47.3262 26.3286 51.706 26.3286C56.0858 26.3286 59.6364 32.2225 59.6364 39.493ZM7.74167 26.963C5.94411 27.7032 2.22213 30.1352 1.71458 33.9417C1.1332 38.3021 2.68289 40.3982 3.19023 41.0844C3.23652 41.147 3.27413 41.1979 3.30066 41.2377C3.61787 41.7135 5.52115 44.5684 10.1208 45.2029C13.8005 45.7104 14.2974 44.357 14.086 43.6168L12.3413 43.2996V38.7C11.1253 38.8057 8.72502 38.5414 8.85191 36.6381C8.92875 35.4855 9.60114 35.003 10.0937 34.6495C10.6179 34.2733 10.9385 34.0433 10.1208 33.3073C8.5347 31.8798 6.31419 31.0868 6.31419 31.0868C6.31419 31.0868 8.27035 29.5536 8.85191 29.5007L7.74167 26.963Z" fill="#E9E9E9"/>
<path fill-rule="evenodd" clip-rule="evenodd" d="M20.3359 32.3752L39.5275 28.5686C40.6377 26.6653 43.5878 22.2878 46.5062 20.0038L11.7711 21.9071L13.04 27.9342C12.3527 26.7182 10.4388 24.1593 8.28177 23.6518C6.12471 23.1443 4.10511 24.6034 3.36494 25.3965C3.31207 24.9207 3.52355 23.6835 4.79241 22.5415C6.37848 21.1141 9.07466 19.6866 19.3841 18.1005C19.4899 17.8891 19.6379 17.4344 19.3841 17.3075C19.0669 17.1489 17.7981 16.1973 18.9083 13.9767C20.0186 11.7562 23.6666 11.9149 24.6182 12.7079C24.8297 12.8136 25.3161 12.9933 25.5698 12.8665C25.6166 12.8431 25.7664 12.6856 26.0175 12.4219C27.4712 10.8944 32.3171 5.80302 40.1617 2.55698C47.5211 -0.48828 68.8168 -0.192213 78.5447 0.336479C82.4042 0.812282 92.5974 2.87414 102.494 7.31515L102.812 7.63236C104.874 7.5795 110.71 7.75925 117.562 8.90122C124.414 10.0432 126.867 11.9148 127.237 12.7078C126.973 13.1308 126.444 14.167 126.444 14.9283L126.444 14.9527L126.444 14.9704C126.444 14.989 126.444 15.0081 126.444 15.0279C126.444 15.0534 126.443 15.08 126.443 15.1074L126.442 15.1594L126.442 15.1688C126.43 16.2763 126.404 18.7062 127.872 20.321C127.925 20.4267 127.491 20.6382 125.334 20.6382C124.488 20.4267 122.574 19.4645 121.686 17.3074L101.86 16.9902L98.2121 21.5898H80.4133L79.8136 24.9206L64.9045 31.1063L77.1173 23.3345V15.0869L80.6066 13.1836L64.5873 15.7213L70.773 22.3829C68.3939 21.114 62.6205 18.5128 58.5602 18.2591C53.4848 17.9419 48.7265 20.4796 44.2855 26.0308C43.5982 27.0353 42.065 29.5836 41.4306 31.7407L20.3359 32.3752ZM24.7421 17.1218C27.227 13.5267 34.0682 5.76554 41.5545 3.48159C49.0408 1.19764 54.4017 2.52995 56.1464 3.48159C57.5739 4.11603 60.3971 6.65377 60.2702 11.7292L24.7421 17.1218ZM81.0477 17.9226L81.3649 19.5087L96.9084 19.1915L99.6047 16.0193H83.744L81.0477 17.9226ZM125.299 18.5571V15.8607L123.237 17.1296L125.299 18.8743V18.5571ZM79.6202 9.67505C75.6867 7.13733 71.214 4.81109 69.4693 3.96518L87.8678 3.80657L98.4945 7.29594L99.2875 8.40619L79.6202 9.67505ZM87.0747 13.7988L100.239 13.4816L101.825 15.2263L121.651 15.5435L124.347 13.7988C122.603 12.7415 117.623 10.595 111.659 10.4681C104.204 10.3095 94.0535 10.7853 87.0747 13.7988Z" fill="#F53F2A"/>
<path d="M47.5819 3.00607C39.3343 3.13296 31.774 9.61472 29.0248 12.8397C35.2423 7.25681 42.1893 5.12082 44.8856 4.75069L38.3827 15.0602L42.1893 14.4257L48.0577 4.43347C55.1634 4.56036 56.834 8.08144 56.7812 9.82613L47.1061 12.8397L58.843 10.7778C58.5258 7.9229 57.8914 2.84746 47.5819 3.00607Z" fill="#F53F2A"/>
<path d="M49.3608 38.2245C49.3608 35.8137 49.9423 34.0479 50.3124 33.4663L53.1674 36.9557L53.0088 37.5901L49.3608 38.2245Z" fill="#E9E9E9"/>
<path d="M57.7673 42.0306V36.1621C56.5513 36.4265 54.5951 36.9551 54.5952 39.1757C54.5952 41.2375 56.8685 41.8191 57.7673 42.0306Z" fill="#E9E9E9"/>
<path d="M53.1688 41.3963C52.2701 42.6123 50.4408 45.0443 50.3139 45.0443C49.1719 43.3948 49.0979 41.0791 49.2037 40.1274L53.1688 41.3963Z" fill="#E9E9E9"/>
<path d="M5.86855 31.7217L7.77184 34.418L4.7583 35.0524C4.7583 33.5298 5.49847 32.1975 5.86855 31.7217Z" fill="#E9E9E9"/>
<path d="M6.02632 40.1273C5.01123 39.2391 4.8632 37.7482 4.91607 37.1138L7.77103 37.5896L6.02632 40.1273Z" fill="#E9E9E9"/>
<path d="M9.9919 39.6519L7.13696 41.3965C8.15205 42.9192 9.78042 43.1941 10.4677 43.1412L9.9919 39.6519Z" fill="#E9E9E9"/>
<path d="M191.64 36.8264C190.86 40.4333 188.172 42.2368 183.577 42.2368C181.062 42.2368 178.877 41.3784 177.022 39.6616C176.779 39.4362 176.762 39.1934 176.97 38.9333L179.259 36.02C179.45 35.7426 179.701 35.7165 180.013 35.942C181.366 37.0345 182.762 37.5807 184.201 37.5807C185.658 37.5807 186.447 37.1645 186.568 36.3322C186.62 35.9507 186.455 35.6472 186.074 35.4217C185.71 35.179 184.999 34.9102 183.941 34.6154C182.19 34.1125 180.846 33.3408 179.909 32.3004C178.973 31.2425 178.643 29.8813 178.921 28.2165C179.216 26.3957 180.039 25.0605 181.392 24.2107C182.762 23.3437 184.444 22.9102 186.438 22.9102C188.866 22.9102 190.981 23.5518 192.785 24.835C193.08 25.0258 193.114 25.2685 192.889 25.5633L190.366 28.5807C190.158 28.8061 189.906 28.8408 189.612 28.6847C188.415 27.9044 187.166 27.5142 185.866 27.5142C184.721 27.5142 184.097 27.861 183.993 28.5547C183.941 28.9015 184.097 29.1876 184.461 29.4131C184.843 29.6385 185.476 29.8899 186.36 30.1674C186.672 30.2714 186.924 30.3582 187.114 30.4275C187.305 30.4795 187.565 30.5749 187.895 30.7136C188.224 30.835 188.502 30.9564 188.727 31.0778C188.953 31.1992 189.213 31.3466 189.507 31.52C189.802 31.6761 190.045 31.8582 190.236 32.0662C190.444 32.257 190.652 32.4738 190.86 32.7165C191.086 32.9593 191.25 33.2281 191.354 33.5229C191.476 33.8004 191.58 34.1038 191.666 34.4333C191.753 34.7628 191.788 35.1356 191.77 35.5518C191.77 35.9507 191.727 36.3755 191.64 36.8264Z" fill="#F53F2A"/>
<path d="M204.238 30.2194L205.382 23.7425C205.435 23.4304 205.617 23.2743 205.929 23.2743H209.882C210.247 23.2743 210.403 23.4651 210.351 23.8466L207.255 41.4044C207.203 41.7166 207.021 41.8726 206.709 41.8726H202.755C202.391 41.8726 202.235 41.6819 202.287 41.3004L203.406 34.7975H199.322L198.151 41.4044C198.099 41.7166 197.917 41.8726 197.605 41.8726H193.651C193.287 41.8726 193.131 41.6819 193.183 41.3004L196.278 23.7425C196.33 23.4304 196.513 23.2743 196.825 23.2743H200.778C201.143 23.2743 201.299 23.4651 201.247 23.8466L200.128 30.2194H204.238Z" fill="#F53F2A"/>
<path d="M226.06 35.1616C225.661 37.4333 224.716 39.1848 223.224 40.416C221.733 41.6299 219.782 42.2368 217.372 42.2368C215.152 42.2368 213.479 41.4911 212.352 39.9998C211.224 38.5085 210.878 36.5663 211.311 34.1732L212.091 29.8032C212.473 27.6356 213.409 25.9448 214.901 24.731C216.409 23.5171 218.334 22.9102 220.675 22.9102C222.895 22.9102 224.577 23.6211 225.722 25.0431C226.866 26.4477 227.222 28.3899 226.788 30.8697L226.06 35.1616ZM216.331 34.7715C216.002 36.6616 216.609 37.6067 218.152 37.6067C218.915 37.6067 219.539 37.364 220.025 36.8784C220.511 36.3928 220.823 35.7252 220.961 34.8755L221.742 30.3495C222.071 28.4766 221.482 27.5402 219.973 27.5402C218.43 27.5402 217.493 28.4333 217.164 30.2194L216.331 34.7715Z" fill="#F53F2A"/>
<path d="M235.644 41.8726H231.066C230.736 41.8726 230.554 41.7079 230.52 41.3784L228.933 23.8206C228.916 23.4564 229.08 23.2743 229.427 23.2743H233.511C233.858 23.2743 234.031 23.4477 234.031 23.7946L234.135 27.3581C234.222 30.046 234.196 33.0373 234.057 36.3322H234.187C234.968 33.6269 235.973 30.6356 237.205 27.3581L238.479 23.9506C238.583 23.6732 238.783 23.5344 239.078 23.5344H243.499C243.812 23.5344 243.985 23.6992 244.02 24.0287L244.228 27.6703C244.384 30.3061 244.445 33.1934 244.41 36.3322H244.54C245.528 33.0027 246.526 29.9506 247.531 27.1761L248.832 23.6905C248.936 23.413 249.135 23.2743 249.43 23.2743H253.696C253.887 23.2743 254.017 23.335 254.086 23.4564C254.173 23.5604 254.182 23.6992 254.112 23.8726L246.335 41.4825C246.231 41.7426 246.023 41.8726 245.71 41.8726H241.132C240.82 41.8726 240.647 41.7079 240.612 41.3784L240.482 37.8929C240.43 36.5749 240.439 33.8524 240.508 29.7252H240.352C239.884 31.7715 239.234 33.8784 238.401 36.046L236.268 41.4564C236.13 41.7339 235.921 41.8726 235.644 41.8726Z" fill="#F53F2A"/>
<path d="M84.8702 41.8727H78.7575C78.3933 41.8727 78.2373 41.682 78.2893 41.3005L81.3847 23.7426C81.4367 23.4305 81.6188 23.2744 81.9309 23.2744H87.9916C88.9627 23.2744 89.8471 23.4131 90.6448 23.6906C91.4598 23.9681 92.1795 24.4016 92.8038 24.9912C93.4454 25.5634 93.8876 26.3785 94.1304 27.4363C94.3732 28.4767 94.3732 29.6906 94.1304 31.0779L93.5321 34.6935C93.0639 37.3814 92.1015 39.2542 90.6448 40.312C89.1882 41.3525 87.2633 41.8727 84.8702 41.8727ZM85.6246 27.8525L83.9598 37.2947H85.8327C86.5437 37.2947 87.1072 37.0866 87.5234 36.6704C87.9396 36.2542 88.2257 35.5519 88.3818 34.5635L89.1361 30.3496C89.4309 28.6848 88.8587 27.8525 87.4194 27.8525H85.6246Z" fill="#E9E9E9"/>
<path d="M110.321 23.8467L109.723 27.3062C109.671 27.6184 109.48 27.7744 109.15 27.7744H102.57L102.101 30.2715H107.642C108.023 30.2715 108.188 30.4623 108.136 30.8438L107.512 34.1733C107.46 34.4854 107.278 34.6415 106.965 34.6415H101.321L100.827 37.3467H107.772C108.136 37.3467 108.292 37.5375 108.24 37.919L107.668 41.4045C107.616 41.7167 107.434 41.8727 107.122 41.8727H95.6244C95.2603 41.8727 95.1042 41.682 95.1562 41.3005L98.2776 23.7426C98.3296 23.4305 98.5117 23.2744 98.8238 23.2744H109.853C110.217 23.2744 110.373 23.4652 110.321 23.8467Z" fill="#E9E9E9"/>
<path d="M125.019 41.8727H121.039C120.692 41.8727 120.51 41.708 120.493 41.3785L120.285 39.0895H115.083L114.094 41.4826C114.007 41.7427 113.808 41.8727 113.496 41.8727H109.178C108.987 41.8727 108.857 41.812 108.788 41.6906C108.701 41.5693 108.701 41.4219 108.788 41.2484L117.189 23.6646C117.311 23.4045 117.519 23.2744 117.814 23.2744H122.314C122.661 23.2744 122.86 23.4305 122.912 23.7426L125.513 41.3265C125.565 41.6906 125.4 41.8727 125.019 41.8727ZM119.426 28.7629H119.322C118.924 29.89 118.143 31.8409 116.981 34.6155H119.869C119.609 31.8409 119.461 29.89 119.426 28.7629Z" fill="#E9E9E9"/>
<path d="M135.226 23.8467L132.859 37.2947H138.998C139.362 37.2947 139.518 37.4854 139.466 37.8669L138.868 41.4045C138.816 41.7167 138.634 41.8727 138.322 41.8727H127.631C127.267 41.8727 127.111 41.682 127.163 41.3005L130.258 23.7426C130.31 23.4305 130.492 23.2744 130.804 23.2744H134.758C135.122 23.2744 135.278 23.4652 135.226 23.8467Z" fill="#E9E9E9"/>
<path d="M155.943 23.8467L155.345 27.3062C155.293 27.6184 155.102 27.7744 154.772 27.7744H148.191L147.723 30.2715H153.264C153.645 30.2715 153.81 30.4623 153.758 30.8438L153.134 34.1733C153.082 34.4854 152.9 34.6415 152.587 34.6415H146.943L146.449 37.3467H153.394C153.758 37.3467 153.914 37.5375 153.862 37.919L153.29 41.4045C153.238 41.7167 153.056 41.8727 152.744 41.8727H141.246C140.882 41.8727 140.726 41.682 140.778 41.3005L143.9 23.7426C143.952 23.4305 144.134 23.2744 144.446 23.2744H155.475C155.839 23.2744 155.995 23.4652 155.943 23.8467Z" fill="#E9E9E9"/>
<path d="M160.34 41.8727H156.361C155.996 41.8727 155.84 41.682 155.892 41.3005L158.962 23.7426C159.014 23.4305 159.196 23.2744 159.508 23.2744H165.699C167.832 23.2744 169.427 23.9247 170.485 25.2253C171.56 26.5085 171.933 28.1473 171.603 30.1415C171.205 32.6906 169.835 34.4768 167.494 35.4999L169.991 41.2745C170.164 41.6733 170.034 41.8727 169.6 41.8727H165.335C165.04 41.8727 164.84 41.734 164.736 41.4565L162.967 36.1762H161.797L160.887 41.4045C160.835 41.7167 160.652 41.8727 160.34 41.8727ZM163.254 27.8264L162.551 31.7282H164.268C164.944 31.7282 165.456 31.5808 165.803 31.286C166.167 30.9912 166.401 30.523 166.505 29.8814C166.713 28.5114 166.184 27.8264 164.918 27.8264H163.254Z" fill="#E9E9E9"/>
<path d="M265.964 24.9292C266.114 24.4442 266.769 24.4442 266.919 24.9292L268.359 29.5728C268.426 29.7897 268.619 29.9366 268.837 29.9366H273.497C273.983 29.9366 274.186 30.5892 273.792 30.889L270.022 33.7589C269.846 33.893 269.772 34.1306 269.84 34.3475L271.28 38.9911C271.43 39.4762 270.9 39.8795 270.506 39.5797L266.737 36.7099C266.561 36.5758 266.322 36.5758 266.146 36.7099L262.376 39.5797C261.983 39.8795 261.453 39.4762 261.603 38.9911L263.043 34.3475C263.11 34.1306 263.037 33.893 262.861 33.7589L259.091 30.889C258.697 30.5892 258.899 29.9366 259.386 29.9366H264.046C264.263 29.9366 264.456 29.7897 264.524 29.5728L265.964 24.9292Z" fill="#E9E9E9"/>
</svg>
