<svg width="172" height="60" viewBox="0 0 172 60" fill="none" xmlns="http://www.w3.org/2000/svg">
<path d="M50.3093 34.4268C50.3093 36.1609 122.911 35.4489 122.911 33.225C122.315 31.3563 50.3093 32.1571 50.3093 34.4268Z" fill="white"/>
<path d="M89.831 0.923826C74.7484 4.33972 61.2827 10.9702 56.4352 13.8585C79.7525 4.86446 91.6988 2.29663 104.592 3.62535C117.485 4.95408 130.923 7.73808 139.76 10.7752C146.83 13.2048 155.479 15.3742 158.919 16.1552C154.24 16.7863 151.75 15.9974 144.505 14.893C137.26 13.7886 129.26 14.9719 120.959 17.0229C114.318 18.6638 106.129 19.4161 102.864 19.5872C106.297 19.8805 114.874 20.0892 121.725 18.5783C130.287 16.6897 141.049 16.2792 147.019 18.0857C151.796 19.5309 155.713 19.7279 157.074 19.6458C166.753 18.0036 171.057 12.2282 172 9.54583C164.066 15.9507 155.896 11.7629 150.24 10.1206C144.584 8.47835 108.684 -3.34604 89.831 0.923826Z" fill="white"/>
<path d="M48.3848 15.2299C23.396 17.0077 5.71627 24.2512 0 27.6508C16.9896 21.6808 40.9542 16.6653 69.3798 18.2919C97.8053 19.9186 123.153 14.3031 132.273 11.2921C82.4515 18.3516 79.6207 13.0076 48.3848 15.2299Z" fill="white"/>
<path d="M15.7119 24.3153C9.78269 26.1219 6.94012 28.5182 6.25998 29.4905C7.27018 29.5741 10.7609 29.3964 16.642 28.0163C23.9935 26.2912 25.4338 21.7747 24.5036 21.8061C23.5734 21.8374 23.1233 22.057 15.7119 24.3153Z" fill="white"/>
<path d="M35.0461 46.3827H40.4741C41.8357 46.3827 43.044 46.6648 44.0989 47.229C45.1538 47.7932 45.9696 48.5881 46.5461 49.6139C47.1349 50.6269 47.4293 51.7937 47.4293 53.1144C47.4293 54.4351 47.1349 55.6084 46.5461 56.6341C45.9696 57.6471 45.1538 58.4357 44.0989 58.9999C43.044 59.564 41.8357 59.8461 40.4741 59.8461H35.0461V46.3827ZM40.3637 58.1728C41.4064 58.1728 42.3202 57.9613 43.1053 57.5381C43.9026 57.115 44.516 56.5252 44.9453 55.7686C45.3746 54.9993 45.5893 54.1146 45.5893 53.1144C45.5893 52.1143 45.3746 51.236 44.9453 50.4794C44.516 49.7101 43.9026 49.1139 43.1053 48.6907C42.3202 48.2676 41.4064 48.056 40.3637 48.056H36.8861V58.1728H40.3637Z" fill="white"/>
<path d="M58.8036 54.807C58.8036 54.948 58.7914 55.1339 58.7668 55.3647H50.8548C50.9652 56.2623 51.3394 56.9868 51.9772 57.5381C52.6274 58.0767 53.4308 58.3459 54.3876 58.3459C55.553 58.3459 56.4914 57.9356 57.2028 57.115L58.178 58.3075C57.7364 58.846 57.1844 59.2563 56.522 59.5384C55.8719 59.8205 55.142 59.9615 54.3324 59.9615C53.302 59.9615 52.3882 59.7436 51.5908 59.3076C50.7935 58.8588 50.174 58.2369 49.7324 57.4419C49.3031 56.647 49.0884 55.7494 49.0884 54.7493C49.0884 53.7619 49.297 52.8708 49.714 52.0758C50.1434 51.2808 50.726 50.6654 51.462 50.2294C52.2103 49.7806 53.0506 49.5562 53.9828 49.5562C54.9151 49.5562 55.7431 49.7806 56.4668 50.2294C57.2028 50.6654 57.7732 51.2808 58.178 52.0758C58.5951 52.8708 58.8036 53.7812 58.8036 54.807ZM53.9828 51.1141C53.1364 51.1141 52.425 51.3834 51.8484 51.9219C51.2842 52.4605 50.953 53.1657 50.8548 54.0376H57.1108C57.0127 53.1785 56.6754 52.4797 56.0988 51.9412C55.5346 51.3898 54.8292 51.1141 53.9828 51.1141Z" fill="white"/>
<path d="M64.5381 49.5562C65.8874 49.5562 66.9178 49.9024 67.6293 50.5948C68.353 51.2872 68.7149 52.3194 68.7149 53.6914V59.8461H67.0405V58.4998C66.7461 58.9742 66.3229 59.3396 65.7709 59.5961C65.2312 59.8397 64.5872 59.9615 63.8389 59.9615C62.7472 59.9615 61.8701 59.6859 61.2077 59.1345C60.5576 58.5831 60.2325 57.8587 60.2325 56.9611C60.2325 56.0636 60.5453 55.3455 61.1709 54.807C61.7965 54.2556 62.7901 53.9799 64.1517 53.9799H66.9485V53.6145C66.9485 52.8195 66.7277 52.2104 66.2861 51.7873C65.8445 51.3642 65.1944 51.1526 64.3357 51.1526C63.7592 51.1526 63.1949 51.2552 62.6429 51.4603C62.0909 51.6527 61.6248 51.9155 61.2445 52.2489L60.5085 50.8641C61.0114 50.441 61.6125 50.1204 62.3117 49.9024C63.0109 49.6716 63.753 49.5562 64.5381 49.5562ZM64.1333 58.5383C64.808 58.5383 65.3906 58.3844 65.8813 58.0767C66.372 57.7561 66.7277 57.3073 66.9485 56.7303V55.307H64.2253C62.7288 55.307 61.9805 55.8327 61.9805 56.8842C61.9805 57.3971 62.1706 57.801 62.5509 58.0959C62.9312 58.3908 63.4586 58.5383 64.1333 58.5383Z" fill="white"/>
<path d="M71.9838 45.5749H73.7502V59.8461H71.9838V45.5749Z" fill="white"/>
<path d="M85.9364 54.807C85.9364 54.948 85.9242 55.1339 85.8996 55.3647H77.9876C78.098 56.2623 78.4722 56.9868 79.11 57.5381C79.7602 58.0767 80.5636 58.3459 81.5204 58.3459C82.6858 58.3459 83.6242 57.9356 84.3356 57.115L85.3108 58.3075C84.8692 58.846 84.3172 59.2563 83.6548 59.5384C83.0047 59.8205 82.2748 59.9615 81.4652 59.9615C80.4348 59.9615 79.521 59.7436 78.7236 59.3076C77.9263 58.8588 77.3068 58.2369 76.8652 57.4419C76.4359 56.647 76.2212 55.7494 76.2212 54.7493C76.2212 53.7619 76.4298 52.8708 76.8468 52.0758C77.2762 51.2808 77.8588 50.6654 78.5948 50.2294C79.3431 49.7806 80.1834 49.5562 81.1156 49.5562C82.0479 49.5562 82.8759 49.7806 83.5996 50.2294C84.3356 50.6654 84.906 51.2808 85.3108 52.0758C85.7279 52.8708 85.9364 53.7812 85.9364 54.807ZM81.1156 51.1141C80.2692 51.1141 79.5578 51.3834 78.9812 51.9219C78.417 52.4605 78.0858 53.1657 77.9876 54.0376H84.2436C84.1455 53.1785 83.8082 52.4797 83.2316 51.9412C82.6674 51.3898 81.962 51.1141 81.1156 51.1141Z" fill="white"/>
<path d="M90.082 51.3642C90.3887 50.7743 90.8426 50.3256 91.4436 50.0178C92.0447 49.7101 92.7746 49.5562 93.6332 49.5562V51.3449C93.5351 51.3321 93.4002 51.3257 93.2284 51.3257C92.2716 51.3257 91.5172 51.627 90.9652 52.2297C90.4255 52.8195 90.1556 53.6658 90.1556 54.7685V59.8461H88.3892V49.6524H90.082V51.3642Z" fill="white"/>
<path d="M106.894 60C105.606 60 104.441 59.7051 103.398 59.1153C102.368 58.5126 101.558 57.692 100.97 56.6534C100.381 55.6019 100.086 54.4223 100.086 53.1144C100.086 51.8065 100.381 50.6333 100.97 49.5947C101.558 48.5433 102.374 47.7226 103.417 47.1328C104.459 46.5302 105.625 46.2288 106.913 46.2288C107.919 46.2288 108.839 46.4083 109.673 46.7674C110.507 47.1136 111.218 47.6329 111.807 48.3253L110.611 49.537C109.642 48.4727 108.434 47.9406 106.986 47.9406C106.03 47.9406 105.165 48.165 104.392 48.6138C103.619 49.0626 103.012 49.6844 102.57 50.4794C102.141 51.2616 101.926 52.1399 101.926 53.1144C101.926 54.0889 102.141 54.9737 102.57 55.7686C103.012 56.5508 103.619 57.1663 104.392 57.6151C105.165 58.0638 106.03 58.2882 106.986 58.2882C108.422 58.2882 109.63 57.7497 110.611 56.6726L111.807 57.8843C111.218 58.5767 110.501 59.1024 109.654 59.4615C108.82 59.8205 107.9 60 106.894 60Z" fill="white"/>
<path d="M117.6 49.5562C118.949 49.5562 119.98 49.9024 120.691 50.5948C121.415 51.2872 121.777 52.3194 121.777 53.6914V59.8461H120.102V58.4998C119.808 58.9742 119.385 59.3396 118.833 59.5961C118.293 59.8397 117.649 59.9615 116.901 59.9615C115.809 59.9615 114.932 59.6859 114.269 59.1345C113.619 58.5831 113.294 57.8587 113.294 56.9611C113.294 56.0636 113.607 55.3455 114.233 54.807C114.858 54.2556 115.852 53.9799 117.213 53.9799H120.01V53.6145C120.01 52.8195 119.789 52.2104 119.348 51.7873C118.906 51.3642 118.256 51.1526 117.397 51.1526C116.821 51.1526 116.257 51.2552 115.705 51.4603C115.153 51.6527 114.686 51.9155 114.306 52.2489L113.57 50.8641C114.073 50.441 114.674 50.1204 115.373 49.9024C116.073 49.6716 116.815 49.5562 117.6 49.5562ZM117.195 58.5383C117.87 58.5383 118.452 58.3844 118.943 58.0767C119.434 57.7561 119.789 57.3073 120.01 56.7303V55.307H117.287C115.79 55.307 115.042 55.8327 115.042 56.8842C115.042 57.3971 115.232 57.801 115.613 58.0959C115.993 58.3908 116.52 58.5383 117.195 58.5383Z" fill="white"/>
<path d="M126.738 51.3642C127.045 50.7743 127.499 50.3256 128.1 50.0178C128.701 49.7101 129.431 49.5562 130.289 49.5562V51.3449C130.191 51.3321 130.056 51.3257 129.885 51.3257C128.928 51.3257 128.173 51.627 127.621 52.2297C127.082 52.8195 126.812 53.6658 126.812 54.7685V59.8461H125.045V49.6524H126.738V51.3642Z" fill="white"/>
<path d="M135.335 59.9615C134.538 59.9615 133.771 59.8525 133.035 59.6346C132.299 59.4038 131.723 59.1153 131.306 58.7691L132.042 57.3073C132.471 57.6279 132.992 57.8843 133.606 58.0767C134.219 58.269 134.838 58.3652 135.464 58.3652C137.01 58.3652 137.782 57.9036 137.782 56.9803C137.782 56.6726 137.678 56.429 137.47 56.2495C137.261 56.07 136.997 55.9417 136.678 55.8648C136.372 55.775 135.93 55.6789 135.354 55.5763C134.569 55.4481 133.925 55.3006 133.422 55.1339C132.931 54.9672 132.508 54.6852 132.152 54.2877C131.796 53.8902 131.618 53.3324 131.618 52.6143C131.618 51.6911 131.986 50.9539 132.722 50.4025C133.458 49.8383 134.446 49.5562 135.685 49.5562C136.335 49.5562 136.985 49.6396 137.635 49.8063C138.285 49.9729 138.819 50.1973 139.236 50.4794L138.482 51.9412C137.684 51.4026 136.746 51.1334 135.666 51.1334C134.918 51.1334 134.348 51.2616 133.955 51.518C133.563 51.7745 133.366 52.1143 133.366 52.5374C133.366 52.8708 133.477 53.1337 133.698 53.326C133.918 53.5183 134.188 53.6594 134.507 53.7491C134.838 53.8389 135.298 53.9415 135.887 54.0569C136.672 54.1979 137.304 54.3518 137.782 54.5185C138.273 54.6723 138.69 54.9416 139.034 55.3263C139.377 55.7109 139.549 56.2495 139.549 56.9419C139.549 57.8651 139.169 58.6024 138.408 59.1537C137.66 59.6923 136.635 59.9615 135.335 59.9615Z" fill="white"/>
</svg>
