<svg width="216" height="43" viewBox="0 0 216 43" fill="none" xmlns="http://www.w3.org/2000/svg">
<path d="M63.5156 41.7029C63.5156 43.7765 154.267 42.9251 154.267 40.2657C153.523 38.031 63.5156 38.9887 63.5156 41.7029Z" fill="white"/>
<path d="M112.918 1.63892C94.0645 5.72375 77.2323 13.6527 71.1729 17.1066C100.32 6.35126 115.252 3.28056 131.369 4.86949C147.485 6.45843 164.282 9.78762 175.329 13.4195C184.167 16.325 194.977 18.9192 199.278 19.8531C193.429 20.6078 190.316 19.6644 181.26 18.3437C172.204 17.023 162.204 18.4381 151.828 20.8908C143.526 22.8529 133.29 23.7526 129.209 23.9572C133.5 24.3079 144.222 24.5575 152.785 22.7508C163.488 20.4923 176.94 20.0013 184.403 22.1616C190.373 23.8898 195.27 24.1255 196.972 24.0273C209.07 22.0634 214.451 15.1571 215.629 11.9494C205.711 19.6085 195.499 14.6006 188.429 12.6368C181.359 10.6729 136.484 -3.46712 112.918 1.63892Z" fill="white"/>
<path d="M61.1099 18.7466C29.8739 20.8725 7.77425 29.5346 0.628906 33.5998C21.866 26.4607 51.8217 20.4631 87.3537 22.4083C122.886 24.3534 154.57 17.6383 165.971 14.0376C103.693 22.4796 100.155 16.0891 61.1099 18.7466Z" fill="white"/>
<path d="M20.2687 29.6112C12.8573 31.7716 9.30406 34.6371 8.45389 35.7999C9.71664 35.8999 14.08 35.6873 21.4315 34.037C30.6208 31.9741 32.4212 26.5731 31.2584 26.6106C30.0957 26.6481 29.5331 26.9106 20.2687 29.6112Z" fill="white"/>
</svg>
