<svg width="151" height="36" viewBox="0 0 151 36" fill="none" xmlns="http://www.w3.org/2000/svg">
<g opacity="0.2">
<path d="M36.8761 0.819468V34.5623H26.4641V10.6531H17.9319L16.1002 23.8128C15.5539 27.637 14.0595 30.3847 11.6172 32.0557C9.20698 33.7268 5.57561 34.5623 0.723062 34.5623H0V24.6323C2.37807 24.6323 3.93667 24.327 4.6758 23.7164C5.44706 23.1058 5.96124 21.8686 6.21833 20.0047L8.91776 0.819468H36.8761Z" fill="white"/>
<path d="M77.9396 16.1484V19.2334C77.8754 25.3393 76.6863 29.5491 74.3725 31.8629C72.0909 34.1446 67.8971 35.3175 61.7913 35.3818H57.3565C51.2506 35.3175 47.0408 34.1446 44.727 31.8629C42.4453 29.5491 41.2724 25.3393 41.2081 19.2334V16.1484C41.2724 10.0425 42.4453 5.84876 44.727 3.5671C47.0408 1.25331 51.2506 0.0642713 57.3565 0H61.7913C67.8971 0.0642713 72.0909 1.25331 74.3725 3.5671C76.6863 5.84876 77.8754 10.0425 77.9396 16.1484ZM51.6202 16.3894V18.9924C51.6202 21.6918 52.0219 23.4433 52.8253 24.2467C53.6287 25.0501 55.3801 25.4518 58.0795 25.4518H61.0682C63.7676 25.4518 65.5191 25.0501 66.3224 24.2467C67.1259 23.4433 67.5275 21.6918 67.5275 18.9924V16.3894C67.5275 13.7221 67.1259 11.9868 66.3224 11.1834C65.5191 10.3478 63.7676 9.93004 61.0682 9.93004H58.0795C55.3801 9.93004 53.6287 10.3478 52.8253 11.1834C52.0219 11.9868 51.6202 13.7221 51.6202 16.3894Z" fill="white"/>
<path d="M111.725 10.6531H92.6848V34.5623H82.2727V0.819468H111.725V10.6531Z" fill="white"/>
<path d="M150.811 16.1484V19.2334C150.746 25.3393 149.557 29.5491 147.244 31.8629C144.962 34.1446 140.768 35.3175 134.662 35.3818H130.228C124.122 35.3175 119.912 34.1446 117.598 31.8629C115.316 29.5491 114.143 25.3393 114.079 19.2334V16.1484C114.143 10.0425 115.316 5.84876 117.598 3.5671C119.912 1.25331 124.122 0.0642713 130.228 0H134.662C140.768 0.0642713 144.962 1.25331 147.244 3.5671C149.557 5.84876 150.746 10.0425 150.811 16.1484ZM124.491 16.3894V18.9924C124.491 21.6918 124.893 23.4433 125.696 24.2467C126.5 25.0501 128.251 25.4518 130.951 25.4518H133.939C136.639 25.4518 138.39 25.0501 139.193 24.2467C139.997 23.4433 140.399 21.6918 140.399 18.9924V16.3894C140.399 13.7221 139.997 11.9868 139.193 11.1834C138.39 10.3478 136.639 9.93004 133.939 9.93004H130.951C128.251 9.93004 126.5 10.3478 125.696 11.1834C124.893 11.9868 124.491 13.7221 124.491 16.3894Z" fill="white"/>
<path d="M36.8761 0.819336V34.5622H26.4641V10.653H17.9319L16.1002 23.8127C15.5539 27.6369 14.0595 30.3845 11.6172 32.0556C9.20698 33.7267 5.57561 34.5622 0.723062 34.5622H0V24.6322C2.37807 24.6322 3.93667 24.3269 4.6758 23.7163C5.44706 23.1057 5.96124 21.8685 6.21833 20.0046L8.91776 0.819336H36.8761Z" fill="white"/>
</g>
</svg>
