<svg width="151" height="36" viewBox="0 0 151 36" fill="none" xmlns="http://www.w3.org/2000/svg">
<path d="M36.8761 1.34437V35.0872H26.4641V11.178H17.9319L16.1002 24.3377C15.5539 28.1619 14.0595 30.9096 11.6172 32.5806C9.20698 34.2517 5.57561 35.0872 0.723062 35.0872H0V25.1572C2.37807 25.1572 3.93667 24.8519 4.6758 24.2413C5.44706 23.6307 5.96124 22.3935 6.21833 20.5296L8.91776 1.34437H36.8761Z" fill="#20272A"/>
<path d="M77.9396 16.6733V19.7583C77.8754 25.8642 76.6863 30.074 74.3725 32.3878C72.0909 34.6695 67.8971 35.8424 61.7913 35.9067H57.3565C51.2506 35.8424 47.0408 34.6695 44.727 32.3878C42.4453 30.074 41.2724 25.8642 41.2081 19.7583V16.6733C41.2724 10.5674 42.4453 6.37367 44.727 4.09201C47.0408 1.77821 51.2506 0.589174 57.3565 0.524902H61.7913C67.8971 0.589174 72.0909 1.77821 74.3725 4.09201C76.6863 6.37367 77.8754 10.5674 77.9396 16.6733ZM51.6202 16.9143V19.5173C51.6202 22.2168 52.0219 23.9682 52.8253 24.7716C53.6287 25.575 55.3801 25.9767 58.0795 25.9767H61.0682C63.7676 25.9767 65.5191 25.575 66.3224 24.7716C67.1259 23.9682 67.5275 22.2168 67.5275 19.5173V16.9143C67.5275 14.247 67.1259 12.5117 66.3224 11.7083C65.5191 10.8727 63.7676 10.4549 61.0682 10.4549H58.0795C55.3801 10.4549 53.6287 10.8727 52.8253 11.7083C52.0219 12.5117 51.6202 14.247 51.6202 16.9143Z" fill="#20272A"/>
<path d="M111.725 11.178H92.6848V35.0872H82.2727V1.34437H111.725V11.178Z" fill="#20272A"/>
<path d="M150.811 16.6733V19.7583C150.746 25.8642 149.557 30.074 147.244 32.3878C144.962 34.6695 140.768 35.8424 134.662 35.9067H130.228C124.122 35.8424 119.912 34.6695 117.598 32.3878C115.316 30.074 114.143 25.8642 114.079 19.7583V16.6733C114.143 10.5674 115.316 6.37367 117.598 4.09201C119.912 1.77821 124.122 0.589174 130.228 0.524902H134.662C140.768 0.589174 144.962 1.77821 147.244 4.09201C149.557 6.37367 150.746 10.5674 150.811 16.6733ZM124.491 16.9143V19.5173C124.491 22.2168 124.893 23.9682 125.696 24.7716C126.5 25.575 128.251 25.9767 130.951 25.9767H133.939C136.639 25.9767 138.39 25.575 139.193 24.7716C139.997 23.9682 140.399 22.2168 140.399 19.5173V16.9143C140.399 14.247 139.997 12.5117 139.193 11.7083C138.39 10.8727 136.639 10.4549 133.939 10.4549H130.951C128.251 10.4549 126.5 10.8727 125.696 11.7083C124.893 12.5117 124.491 14.247 124.491 16.9143Z" fill="#20272A"/>
<path d="M36.8761 1.34424V35.0871H26.4641V11.1779H17.9319L16.1002 24.3376C15.5539 28.1618 14.0595 30.9094 11.6172 32.5805C9.20698 34.2516 5.57561 35.0871 0.723062 35.0871H0V25.1571C2.37807 25.1571 3.93667 24.8518 4.6758 24.2412C5.44706 23.6306 5.96124 22.3934 6.21833 20.5295L8.91776 1.34424H36.8761Z" fill="#FD4B0D"/>
</svg>
