<svg width="41" height="37" viewBox="0 0 41 37" fill="none" xmlns="http://www.w3.org/2000/svg">
<path d="M11.9123 21.4126C13.0645 21.4126 14.1782 21.3381 15.2321 21.1996V9.64804C14.1783 9.50961 13.0645 9.43518 11.9123 9.43518C5.33339 9.43518 0.000137329 11.854 0.000137329 14.838V16.0097C0.000137329 18.9935 5.33339 21.4126 11.9123 21.4126Z" fill="white"/>
<path d="M11.9123 27.4443C13.0645 27.4443 14.1782 27.3698 15.2321 27.2315V23.8455C14.178 23.984 13.0648 24.0594 11.9123 24.0594C6.16962 24.0594 1.37653 22.2162 0.25067 19.7632C0.0867108 20.1205 0.000137329 20.4905 0.000137329 20.8698V22.0415C0.000137329 25.0254 5.33339 27.4443 11.9123 27.4443Z" fill="white"/>
<path d="M15.2319 30.1407V29.8775C14.1778 30.0159 13.0646 30.0914 11.9121 30.0914C6.16948 30.0914 1.3764 28.2482 0.250532 25.7952C0.0865735 26.1524 0 26.5224 0 26.9016V28.0733C0 31.0574 5.33325 33.4762 11.9121 33.4762C13.2278 33.4762 14.4932 33.3793 15.6765 33.2006C15.3832 32.6006 15.2319 31.9678 15.2319 31.3123V30.1407Z" fill="white"/>
<path d="M29.0876 0.284668C22.5088 0.284668 17.1755 2.70353 17.1755 5.68746V6.85917C17.1755 9.8431 22.5088 12.262 29.0876 12.262C35.6664 12.262 40.9998 9.8431 40.9998 6.85917V5.68746C40.9998 2.70353 35.6664 0.284668 29.0876 0.284668Z" fill="white"/>
<path d="M29.0876 14.909C23.345 14.909 18.5519 13.066 17.426 10.6128C17.2621 10.97 17.1755 11.34 17.1755 11.7194V12.8911C17.1755 15.875 22.5088 18.2939 29.0876 18.2939C35.6664 18.2939 40.9998 15.875 40.9998 12.8911V11.7194C40.9998 11.34 40.9132 10.97 40.7492 10.6128C39.6234 13.066 34.8303 14.909 29.0876 14.909Z" fill="white"/>
<path d="M29.0876 20.941C23.345 20.941 18.5519 19.0978 17.426 16.6448C17.2621 17.002 17.1755 17.372 17.1755 17.7513V18.9231C17.1755 21.9071 22.5088 24.326 29.0876 24.326C35.6664 24.326 40.9998 21.9071 40.9998 18.9231V17.7513C40.9998 17.372 40.9132 17.002 40.7492 16.6448C39.6234 19.0979 34.8303 20.941 29.0876 20.941Z" fill="white"/>
<path d="M29.0876 27.2985C23.345 27.2985 18.5519 25.4554 17.426 23.0023C17.2621 23.3596 17.1755 23.7295 17.1755 24.1088V25.2806C17.1755 28.2645 22.5088 30.6834 29.0876 30.6834C35.6664 30.6834 40.9998 28.2645 40.9998 25.2806V24.1088C40.9998 23.7295 40.9132 23.3594 40.7492 23.0023C39.6234 25.4553 34.8303 27.2985 29.0876 27.2985Z" fill="white"/>
<path d="M29.0876 33.3304C23.345 33.3304 18.5519 31.4873 17.426 29.0343C17.2621 29.3916 17.1755 29.7617 17.1755 30.1407V31.3125C17.1755 34.2964 22.5088 36.7152 29.0876 36.7152C35.6664 36.7152 40.9998 34.2964 40.9998 31.3125V30.1406C40.9998 29.7614 40.9132 29.3913 40.7492 29.0342C39.6234 31.4872 34.8303 33.3304 29.0876 33.3304Z" fill="white"/>
</svg>
