<svg width="193" height="69" viewBox="0 0 193 69" fill="none" xmlns="http://www.w3.org/2000/svg">
<path fill-rule="evenodd" clip-rule="evenodd" d="M84.1865 11.6587C84.1865 11.6587 84.1865 11.6587 88.2371 11.6587C89.7257 11.6587 90.4527 12.3874 90.4527 14.053C90.4527 14.053 90.4527 14.053 90.4527 19.8827C90.4527 19.8827 90.4527 19.8827 98.3807 19.8827C98.3807 19.8827 98.3807 19.8827 98.3807 14.053C98.3807 12.3874 99.1077 11.6587 100.769 11.6587C100.769 11.6587 100.769 11.6587 104.647 11.6587C104.647 11.6587 104.647 11.6587 104.647 15.5104C104.647 15.5104 104.647 15.5104 102.985 15.5104L102.812 15.6839C102.812 15.6839 102.812 15.6839 102.812 32.132C102.812 32.132 102.812 32.132 98.3807 32.132C98.3807 32.132 98.3807 32.132 98.3807 23.908C98.3807 23.908 98.3807 23.908 90.4527 23.908C90.4527 23.908 90.4527 23.908 90.4527 32.132C90.4527 32.132 90.4527 32.132 86.0214 32.132C86.0214 32.132 86.0214 32.132 86.0214 15.6839C86.0214 15.6839 86.0214 15.5104 85.8483 15.5104C85.8483 15.5104 85.8483 15.5104 84.1865 15.5104C84.1865 15.5104 84.1865 15.5104 84.1865 11.6587Z" fill="#ED1C24"/>
<path fill-rule="evenodd" clip-rule="evenodd" d="M116.245 11.3115H116.349V15.545L116.245 15.5103C112.921 15.5103 110.359 18.2516 110.359 21.7217C110.359 25.3652 112.921 28.3148 116.245 28.3148L116.349 28.2801V32.4788L116.245 32.5135C110.359 32.5135 105.547 27.7595 105.547 21.7217C105.547 15.892 110.359 11.3115 116.245 11.3115Z" fill="#ED1C24"/>
<path fill-rule="evenodd" clip-rule="evenodd" d="M116.349 11.3115L118.391 11.5197C123.273 12.4566 126.943 16.6207 126.943 21.7217C126.943 26.9961 123.273 31.299 118.391 32.2706L116.349 32.4788V28.2801L118.599 27.7942C120.78 26.7879 122.338 24.463 122.338 21.7217C122.338 19.1191 120.78 16.933 118.599 15.9961L116.349 15.545V11.3115Z" fill="#ED1C24"/>
<path fill-rule="evenodd" clip-rule="evenodd" d="M127.844 11.6587C127.844 11.6587 127.844 11.6587 134.04 11.6587H136.983V15.5104H136.706C136.325 15.5104 135.598 15.5104 134.11 15.5104C134.11 15.5104 134.11 15.5104 134.11 19.7092C134.11 19.7092 134.11 19.7092 135.356 19.7092H136.983V23.3528H136.048C135.564 23.3528 134.941 23.3528 134.11 23.3528C134.11 23.3528 134.11 23.3528 134.11 27.9332C134.11 28.1067 134.11 28.1067 134.317 28.1067C134.317 28.1067 134.317 28.1067 135.633 28.1067H136.983V32.132H136.602C135.91 32.132 134.594 32.132 131.929 32.132C130.44 32.132 129.713 31.4033 129.713 29.7723V15.5104C129.713 15.5104 129.713 15.5104 127.844 15.5104C127.844 15.5104 127.844 15.5104 127.844 11.6587Z" fill="#ED1C24"/>
<path fill-rule="evenodd" clip-rule="evenodd" d="M136.982 11.6587H137.052C141.137 11.6587 143.526 13.8795 143.526 17.1761C143.526 19.154 142.591 20.4379 141.691 21.3748C143.352 22.1035 144.426 23.908 144.426 25.9206C144.426 29.7723 141.483 32.132 137.259 32.132C137.259 32.132 137.259 32.132 137.19 32.132H136.982V28.1067H137.432C138.921 28.1067 139.821 27.2045 139.821 25.7471C139.821 24.2897 138.921 23.3528 137.432 23.3528C137.432 23.3528 137.432 23.3528 137.017 23.3528H136.982V19.7092H137.052C138.367 19.7092 139.094 18.807 139.094 17.5231C139.094 16.2392 138.367 15.5104 137.052 15.5104C137.052 15.5104 137.052 15.5104 137.017 15.5104H136.982V11.6587Z" fill="#ED1C24"/>
<path fill-rule="evenodd" clip-rule="evenodd" d="M152.908 11.6587C152.908 11.6587 152.908 11.6587 154.777 11.6587H155.124V17.5231C154.951 17.9048 154.743 18.4253 154.743 18.9805C154.743 18.9805 154.743 18.9805 153.289 23.1793C153.289 23.1793 153.289 23.1793 154.847 23.1793H155.124V27.031H154.12C153.566 27.031 152.908 27.031 152.181 27.031C152.181 27.031 152.181 27.031 150.9 30.3276C150.519 31.5768 149.792 32.132 148.304 32.132C148.304 32.132 148.304 32.132 145.534 32.132C145.534 32.132 145.534 32.132 145.534 28.1067C145.534 28.1067 145.534 28.1067 146.469 28.1067C146.849 28.1067 146.849 28.1067 147.023 27.9332C147.023 27.9332 147.023 27.9332 152.908 11.6587Z" fill="#ED1C24"/>
<path fill-rule="evenodd" clip-rule="evenodd" d="M155.124 11.6587H157.34C157.34 11.6587 157.34 11.6587 163.225 27.9332C163.398 28.1067 163.398 28.1067 163.779 28.1067C163.779 28.1067 163.779 28.1067 164.506 28.1067C164.506 28.1067 164.506 28.1067 164.506 32.132C164.506 32.132 164.506 32.132 161.944 32.132C160.455 32.132 159.728 31.5768 159.348 30.1194C159.348 30.1194 159.348 30.1194 158.067 27.031C158.067 27.031 158.067 27.031 155.574 27.031H155.124V23.1793H156.959C156.959 23.1793 156.959 23.1793 155.505 18.9805C155.505 18.4253 155.297 17.9048 155.124 17.5231V11.6587Z" fill="#ED1C24"/>
<path fill-rule="evenodd" clip-rule="evenodd" d="M84.1865 37.9622C84.1865 37.9622 84.1865 37.9622 100.216 37.9622C101.704 37.9622 102.604 38.7256 102.604 40.3565C102.604 40.3565 102.604 40.3565 102.604 54.2367C102.604 54.4102 102.604 54.4102 102.812 54.4102C102.812 54.4102 102.812 54.4102 104.266 54.4102C104.266 54.4102 104.266 54.4102 104.266 58.4354C104.266 58.4354 104.266 58.4354 100.423 58.4354C98.7615 58.4354 97.9999 57.7067 97.9999 56.0758C97.9999 56.0758 97.9999 56.0758 97.9999 42.0221C97.9999 42.0221 97.9999 41.8139 97.8268 41.8139C97.8268 41.8139 97.8268 41.8139 90.4527 41.8139C90.4527 41.8139 90.4527 41.8139 90.4527 58.4354C90.4527 58.4354 90.4527 58.4354 86.0214 58.4354C86.0214 58.4354 86.0214 58.4354 86.0214 41.8139C86.0214 41.8139 86.0214 41.8139 84.1865 41.8139C84.1865 41.8139 84.1865 41.8139 84.1865 37.9622Z" fill="#ED1C24"/>
<path fill-rule="evenodd" clip-rule="evenodd" d="M115.899 37.615H115.968V41.8485L115.899 41.8137C112.541 41.8137 109.979 44.5551 109.979 48.0251C109.979 51.6687 112.541 54.6182 115.899 54.6182L115.968 54.5835V58.7823L115.899 58.817C109.979 58.817 105.375 54.063 105.375 48.0251C105.375 42.1955 109.979 37.615 115.899 37.615Z" fill="#ED1C24"/>
<path fill-rule="evenodd" clip-rule="evenodd" d="M115.969 37.615L118.08 37.8232C123.031 38.7601 126.562 42.9242 126.562 48.0251C126.562 53.2996 123.031 57.6025 118.08 58.5741L115.969 58.7823V54.5835L118.323 54.0977C120.504 53.0914 121.958 50.7665 121.958 48.0251C121.958 45.4226 120.504 43.2365 118.323 42.2996L115.969 41.8484V37.615Z" fill="#ED1C24"/>
<path fill-rule="evenodd" clip-rule="evenodd" d="M127.497 37.9622C127.497 37.9622 127.497 37.9622 131.548 37.9622C133.036 37.9622 133.763 38.7256 133.763 40.3565C133.763 40.3565 133.763 40.3565 133.763 54.2367C133.763 54.4102 133.763 54.4102 133.936 54.4102C133.936 54.4102 133.936 54.4102 139.268 54.4102C139.268 54.4102 139.268 54.4102 139.268 37.9622C139.268 37.9622 139.268 37.9622 143.699 37.9622C143.699 37.9622 143.699 37.9622 143.699 54.4102C143.699 54.4102 143.699 54.4102 149.065 54.4102C149.238 54.4102 149.238 54.4102 149.238 54.2367C149.238 54.2367 149.238 54.2367 149.238 40.3565C149.238 38.7256 149.965 37.9622 151.454 37.9622C151.454 37.9622 151.454 37.9622 155.505 37.9622C155.505 37.9622 155.505 37.9622 155.505 41.8139C155.505 41.8139 155.505 41.8139 153.843 41.8139C153.635 41.8139 153.635 42.0221 153.635 42.0221C153.635 42.0221 153.635 42.0221 153.635 56.0758C153.635 57.7067 152.908 58.4354 151.454 58.4354C151.454 58.4354 151.454 58.4354 131.721 58.4354C130.059 58.4354 129.332 57.7067 129.332 56.0758C129.332 56.0758 129.332 56.0758 129.332 42.0221C129.332 42.0221 129.332 41.8139 129.159 41.8139C129.159 41.8139 129.159 41.8139 127.497 41.8139C127.497 41.8139 127.497 41.8139 127.497 37.9622Z" fill="#ED1C24"/>
<path fill-rule="evenodd" clip-rule="evenodd" d="M159.001 37.9622C159.001 37.9622 159.001 37.9622 172.814 37.9622C174.476 37.9622 175.03 38.7256 175.03 40.183C175.03 40.183 175.03 40.183 175.03 43.653H170.979C170.979 43.653 170.979 43.653 170.979 42.0221C170.979 41.8139 170.979 41.8139 170.771 41.8139C170.771 41.8139 170.771 41.8139 168.21 41.8139C168.21 41.8139 168.21 41.8139 168.21 58.4354C168.21 58.4354 168.21 58.4354 163.778 58.4354C163.778 58.4354 163.778 58.4354 163.778 41.8139C163.778 41.8139 163.778 41.8139 161.216 41.8139C161.009 41.8139 161.009 41.8139 161.009 42.0221C161.009 42.0221 161.009 42.0221 161.009 43.653C161.009 43.653 161.009 43.653 156.958 43.653C156.958 43.653 156.958 43.653 156.958 40.183C156.958 38.7256 157.512 37.9622 159.001 37.9622Z" fill="#ED1C24"/>
<path fill-rule="evenodd" clip-rule="evenodd" d="M180.742 37.9622C180.742 37.9622 180.742 37.9622 182.612 37.9622H182.958V43.8265C182.75 44.2082 182.577 44.7288 182.577 45.284C182.577 45.284 182.577 45.284 181.089 49.4827C181.089 49.4827 181.089 49.4827 182.647 49.4827H182.958V53.3345H181.954C181.366 53.3345 180.742 53.3345 179.981 53.3345C179.981 53.3345 179.981 53.3345 178.7 56.4228C178.354 57.8802 177.592 58.4354 176.138 58.4354C176.138 58.4354 176.138 58.4354 173.368 58.4354C173.368 58.4354 173.368 58.4354 173.368 54.4102C173.368 54.4102 173.368 54.4102 174.303 54.4102C174.649 54.4102 174.649 54.4102 174.857 54.2367C174.857 54.2367 174.857 54.2367 180.742 37.9969V37.9622Z" fill="#ED1C24"/>
<path fill-rule="evenodd" clip-rule="evenodd" d="M182.958 37.9622H185.139C185.139 37.9622 185.139 37.9622 191.059 54.2367C191.232 54.4102 191.232 54.4102 191.613 54.4102H192.34C192.34 54.4102 192.34 54.4102 192.34 58.4354C192.34 58.4354 192.34 58.4354 189.778 58.4354C188.29 58.4354 187.563 57.8802 187.182 56.4228C187.182 56.4228 187.182 56.4228 185.901 53.3345C185.901 53.3345 185.901 53.3345 183.408 53.3345H182.958V49.4827H184.793C184.793 49.4827 184.793 49.4827 183.304 45.284C183.304 44.7288 183.131 44.2082 182.958 43.8265V37.9622Z" fill="#ED1C24"/>
<path fill-rule="evenodd" clip-rule="evenodd" d="M55.7991 20.3702C56.0068 20.3008 56.2838 20.4396 56.5607 20.8213C56.5607 20.8213 56.5607 20.8213 69.0931 33.0359C69.8202 33.7646 69.8202 34.875 69.0931 35.4302C69.0931 35.4302 69.0931 35.4302 56.5607 47.853C56.2838 48.2 56.0068 48.3041 55.7991 48.2C55.5914 48.0959 55.4529 47.7489 55.4529 47.2978V21.1683C55.4529 20.7172 55.5914 20.4396 55.7991 20.3702Z" fill="#ED1C24"/>
<path fill-rule="evenodd" clip-rule="evenodd" d="M34.3693 0H35.2694L36.1003 0.347005C36.1003 0.347005 36.1003 0.347005 49.0136 13.1515C49.5675 13.8802 49.3598 14.4007 48.4596 14.4007C48.4596 14.4007 48.4596 14.4007 43.0936 14.4007C42.1934 14.4007 41.4318 15.1641 41.4318 16.0663C41.4318 16.0663 41.4318 16.0663 41.4318 25.5743C41.4318 26.4765 40.7048 27.2052 39.5969 27.2052C39.5969 27.2052 39.5969 27.2052 30.2149 27.2052C29.2802 27.2052 28.5532 26.4765 28.5532 25.5743C28.5532 25.5743 28.5532 25.5743 28.5532 16.0663C28.5532 15.1641 27.8261 14.4007 26.8914 14.4007H21.1791C20.2444 14.4007 20.0713 13.8802 20.6252 13.1515C20.6252 13.1515 20.6252 13.1515 33.5384 0.347005L34.3693 0Z" fill="#ED1C24"/>
<path fill-rule="evenodd" clip-rule="evenodd" d="M14.1855 20.0915C14.3933 20.2303 14.5317 20.5426 14.5317 20.9937V47.6437C14.5317 48.1295 14.3933 48.4071 14.1855 48.4765C13.9432 48.5806 13.6316 48.4765 13.2508 48.1989C13.2508 48.1989 13.2508 48.1989 0.545265 35.4291C-0.181755 34.8739 -0.181755 33.7635 0.545265 33.0348C0.545265 33.0348 0.545265 33.0348 13.2508 20.4385C13.6316 20.0915 13.9432 19.9874 14.1855 20.0915Z" fill="#ED1C24"/>
<path fill-rule="evenodd" clip-rule="evenodd" d="M30.2146 41.085C30.2146 41.085 30.2146 41.085 39.5966 41.085C40.7044 41.085 41.4661 41.8137 41.4661 42.7506C41.4661 42.7506 41.4661 42.7506 41.4661 52.779C41.4661 53.8895 42.1931 54.6182 43.0932 54.6182H48.0785C49.0132 54.6182 49.3594 55.1387 48.6324 55.6939C48.6324 55.6939 48.6324 55.6939 36.1 68.2902C35.7192 68.6719 35.2691 68.8454 34.8191 68.8454C34.369 68.8454 33.8843 68.6719 33.5381 68.2902C33.5381 68.2902 33.5381 68.2902 21.0057 55.6939C20.244 55.1387 20.6249 54.6182 21.525 54.6182C21.525 54.6182 21.525 54.6182 26.8911 54.6182C27.8258 54.6182 28.5528 53.8895 28.5528 52.779C28.5528 52.779 28.5528 52.779 28.5528 42.7506C28.5528 41.8137 29.2799 41.085 30.2146 41.085Z" fill="#ED1C24"/>
</svg>
