<svg width="44" height="44" viewBox="0 0 44 44" fill="none" xmlns="http://www.w3.org/2000/svg">
<g clip-path="url(#clip0)">
<path d="M43.9246 6.63923C43.8554 6.15583 43.5193 5.75295 43.0561 5.59818C42.5954 5.44212 42.083 5.56415 41.7368 5.9091L39.9139 7.73321C38.9396 8.70757 37.2414 8.70757 36.267 7.73321C35.2588 6.72499 35.2593 5.0951 36.267 4.08757L38.0898 2.26475C38.4348 1.9198 38.5556 1.40873 38.4007 0.945439C38.2459 0.48215 37.8431 0.146048 37.3597 0.0768683C34.954 -0.263015 32.5194 0.545142 30.7985 2.26346C28.8524 4.21089 28.0845 7.07356 28.7957 9.73599L9.73647 28.7945L9.73518 28.7932C7.0828 28.0896 4.20381 28.8574 2.26394 30.7973C0.554387 32.5068 -0.263824 34.9604 0.0760593 37.3597C0.145325 37.8431 0.481426 38.2459 0.94463 38.4007C1.40414 38.5556 1.9177 38.4347 2.26394 38.0898L4.08676 36.2657C5.06112 35.2913 6.75933 35.2913 7.73369 36.2657C8.74191 37.2737 8.74139 38.9036 7.73369 39.9113L5.91087 41.7341C5.56592 42.0791 5.44509 42.5902 5.59995 43.0534C5.75481 43.5167 6.1576 43.8528 6.641 43.922C9.04037 44.2634 11.4547 43.4812 13.2022 41.7354C15.1483 39.788 15.9162 36.9253 15.205 34.2629L34.2642 15.2044L34.2655 15.2057C36.9317 15.9119 39.7969 15.1415 41.7368 13.2016C43.4463 11.492 44.2645 9.0386 43.9246 6.63923Z" fill="white"/>
<path d="M36.2657 28.5312C35.6552 28.5312 35.027 28.6231 34.2893 28.8183L29.2931 23.8226L23.8229 29.2922L28.8183 34.288C28.6232 35.0269 28.5313 35.6551 28.5313 36.2656C28.5313 40.5306 32.0007 44 36.2657 44C40.5307 44 44.0001 40.5306 44.0001 36.2656C44.0001 32.0006 40.5307 28.5312 36.2657 28.5312ZM40.4954 36.0075L39.7288 38.8676C39.6092 39.312 39.2617 39.6594 38.8174 39.779L35.9573 40.5456C35.5372 40.6615 35.0517 40.5515 34.7124 40.212L32.6189 38.1186C32.2929 37.7925 32.1658 37.318 32.2853 36.8736L33.052 34.0135C33.1716 33.5691 33.519 33.2217 33.9633 33.1022L36.8234 32.3355C37.2653 32.2121 37.7411 32.3431 38.0684 32.6691L40.1618 34.7626C40.4879 35.0886 40.615 35.5632 40.4954 36.0075Z" fill="white"/>
<path d="M15.2029 9.6629C15.9142 7.00047 15.1462 4.1366 13.2001 2.19038C10.2783 -0.730125 5.18117 -0.730125 2.26196 2.19038C-0.752989 5.20661 -0.752989 10.1136 2.26196 13.1285C4.19933 15.0659 7.06827 15.8451 9.73448 15.1314L14.7085 20.1766L20.1778 14.7079L15.2029 9.6629ZM11.8317 7.27238L11.0651 10.1325C10.9454 10.5768 10.598 10.9243 10.1537 11.0438L7.2936 11.8105C6.87345 11.9263 6.38799 11.8163 6.04862 11.4769L3.95518 9.38343C3.62914 9.05738 3.50203 8.58284 3.62157 8.13845L4.38822 5.27837C4.50785 4.83398 4.85529 4.48654 5.29959 4.367L8.15968 3.60035C8.60406 3.47952 9.07861 3.60791 9.40465 3.93396L11.4981 6.0274C11.8241 6.35345 11.9512 6.82799 11.8317 7.27238Z" fill="white"/>
</g>
<defs>
<clipPath id="clip0">
<rect width="44" height="44" fill="white"/>
</clipPath>
</defs>
</svg>
