<svg width="41" height="41" viewBox="0 0 41 41" fill="none" xmlns="http://www.w3.org/2000/svg">
<g clip-path="url(#clip0)">
<path d="M41.0001 27.7471C41.0001 22.6593 38.0814 18.1186 33.7099 15.9099C33.5741 25.6651 25.6652 33.574 15.91 33.7098C18.1188 38.0812 22.6594 41 27.7472 41C30.1327 41 32.4524 40.3647 34.4907 39.1576L40.9423 40.9421L39.1577 34.4905C40.3648 32.4523 41.0001 30.1325 41.0001 27.7471Z" fill="white"/>
<path d="M31.3105 15.6553C31.3105 7.02279 24.2878 0 15.6553 0C7.02279 0 0 7.02279 0 15.6553C0 18.4686 0.748856 21.2079 2.17087 23.6127L0.0575562 31.2527L7.69782 29.1397C10.1027 30.5617 12.8419 31.3105 15.6553 31.3105C24.2878 31.3105 31.3105 24.2878 31.3105 15.6553ZM13.2529 12.0117H10.8506C10.8506 9.36226 13.0058 7.20703 15.6553 7.20703C18.3047 7.20703 20.46 9.36226 20.46 12.0117C20.46 13.3565 19.8907 14.649 18.8975 15.5574L16.8564 17.4254V19.2988H14.4541V16.3675L17.2756 13.785C17.7798 13.3236 18.0576 12.6939 18.0576 12.0117C18.0576 10.687 16.98 9.60938 15.6553 9.60938C14.3305 9.60938 13.2529 10.687 13.2529 12.0117ZM14.4541 21.7012H16.8564V24.1035H14.4541V21.7012Z" fill="white"/>
</g>
<defs>
<clipPath id="clip0">
<rect width="41" height="41" fill="white"/>
</clipPath>
</defs>
</svg>
