<svg width="45" height="45" viewBox="0 0 45 45" fill="none" xmlns="http://www.w3.org/2000/svg">
<path fill-rule="evenodd" clip-rule="evenodd" d="M12.5944 16.4661C12.5944 7.63969 19.7755 0.458496 28.6028 0.458496C37.4301 0.458496 44.6113 7.63969 44.6113 16.4661C44.6113 25.2943 37.4301 32.4755 28.6028 32.4755C24.7594 32.4755 21.1237 31.1196 18.2308 28.6603L15.7045 31.1874L16.6147 32.0977C17.1179 32.6008 17.1179 33.4166 16.6147 33.9189L6.48823 44.0463C5.98504 44.5495 5.17015 44.5486 4.66696 44.0463L1.02356 40.4029C0.520365 39.8997 0.521224 39.0839 1.02356 38.5816L11.1509 28.4542C11.6532 27.9519 12.469 27.9519 12.9722 28.4542L13.8832 29.3662L16.4095 26.8391C13.9562 23.953 12.5944 20.3199 12.5944 16.4661ZM41.2305 16.4852C41.2305 23.4783 35.5615 29.1474 28.5684 29.1474C21.5753 29.1474 15.9062 23.4783 15.9062 16.4852C15.9062 9.49214 21.5753 3.8231 28.5684 3.8231C35.5615 3.8231 41.2305 9.49214 41.2305 16.4852ZM28.1116 8.69544C28.2949 8.31126 28.8418 8.31126 29.0251 8.69544L31.0901 13.0229C31.1639 13.1775 31.3108 13.2843 31.4807 13.3067L36.2344 13.9333C36.6565 13.9889 36.8255 14.509 36.5167 14.8021L33.0392 18.1032C32.9149 18.2212 32.8588 18.394 32.89 18.5624L33.763 23.2771C33.8405 23.6957 33.3981 24.0171 33.024 23.8141L28.8098 21.5269C28.6592 21.4451 28.4775 21.4451 28.327 21.5269L24.1128 23.8141C23.7386 24.0171 23.2962 23.6957 23.3737 23.2771L24.2468 18.5624C24.278 18.394 24.2218 18.2212 24.0976 18.1032L20.62 14.8021C20.3113 14.509 20.4803 13.9889 20.9023 13.9333L25.6561 13.3067C25.8259 13.2843 25.9729 13.1775 26.0467 13.0229L28.1116 8.69544Z" fill="url(#paint0_linear)"/>
<defs>
<linearGradient id="paint0_linear" x1="0.571444" y1="11.6492" x2="55.3019" y2="13.7045" gradientUnits="userSpaceOnUse">
<stop stop-color="#FD4B0D"/>
<stop offset="1" stop-color="#FF855A"/>
</linearGradient>
</defs>
</svg>
