<svg width="28" height="28" viewBox="0 0 28 28" fill="none" xmlns="http://www.w3.org/2000/svg">
<g clip-path="url(#clip0)">
<path d="M28.0004 14.0259C28.0005 14.0173 28.0008 14.0086 28.0008 13.9999C28.0008 10.2604 26.5445 6.74473 23.9003 4.1005C21.2561 1.45626 17.7404 0 14.0009 0C10.2614 0 6.74571 1.45626 4.10148 4.1005C1.46369 6.73828 0.00841402 10.2433 0.00130469 13.9725V13.9743C0.00125 13.9828 0.000976562 13.9913 0.000976562 13.9999C0.000976562 17.7394 1.45719 21.2551 4.10142 23.8993C6.74385 26.5418 10.2566 27.9978 13.9932 27.9997C13.9959 27.9998 13.9986 28 14.0013 28C14.0028 28 14.0042 27.9998 14.0057 27.9998C17.7434 27.9986 21.2572 26.5425 23.9003 23.8993C26.5379 21.2617 27.9932 17.7568 28.0004 14.0278C28.0004 14.0272 28.0004 14.0265 28.0004 14.0259ZM20.6065 24.4414L19.4031 23.6468C19.025 23.3972 18.5161 23.5013 18.2665 23.8793C18.0168 24.2574 18.121 24.7662 18.499 25.0159L18.9592 25.3198C17.5853 25.924 16.0815 26.2849 14.5022 26.3483L13.8557 25.0554C13.6531 24.6502 13.1604 24.486 12.7551 24.6886C12.3499 24.8912 12.1857 25.3839 12.3883 25.7892L12.6355 26.2835C11.0715 26.1108 9.5948 25.6453 8.26109 24.9429L8.34766 23.5019C8.37484 23.0497 8.03026 22.6611 7.578 22.6339C7.12699 22.6074 6.73712 22.9513 6.70995 23.4035L6.67713 23.9492C5.44295 23.0383 4.38361 21.9039 3.55947 20.6058L4.35397 19.4024C4.60356 19.0242 4.49943 18.5154 4.12133 18.2658C3.74322 18.0163 3.23441 18.1204 2.98482 18.4985L2.68103 18.9586C2.07685 17.5847 1.71586 16.0809 1.65247 14.5016L2.94523 13.855C3.3504 13.6523 3.51457 13.1596 3.31196 12.7544C3.10929 12.3492 2.61661 12.1851 2.21138 12.3877L1.71728 12.6348C1.88993 11.0708 2.35553 9.59405 3.05794 8.26033L4.49883 8.3469C4.51557 8.34789 4.53225 8.34838 4.54882 8.34838C4.97932 8.34838 5.34069 8.01271 5.36688 7.57724C5.39401 7.12497 5.04948 6.73637 4.59727 6.70919L4.05155 6.67637C4.96247 5.44214 6.09701 4.38274 7.39518 3.55855L8.59879 4.3531C8.73797 4.44497 8.89481 4.48889 9.04996 4.48889C9.31628 4.48889 9.57758 4.35933 9.7353 4.12041C9.98489 3.7423 9.88071 3.23349 9.5026 2.9839L9.04246 2.68016C10.4163 2.07598 11.92 1.71504 13.4992 1.65166L14.1459 2.94452C14.2897 3.2319 14.5793 3.39804 14.8802 3.39804C15.0035 3.39804 15.1287 3.37015 15.2465 3.3112C15.6517 3.10853 15.8159 2.6158 15.6132 2.21062L15.3661 1.71641C16.9301 1.88906 18.4069 2.35467 19.7407 3.05718L19.6543 4.49813C19.6272 4.95039 19.9718 5.33895 20.4241 5.36607C20.4408 5.36711 20.4574 5.36755 20.4739 5.36755C20.9045 5.36755 21.2659 5.03182 21.292 4.59629L21.3247 4.0509C22.5589 4.96182 23.6182 6.09636 24.4424 7.39453L23.6478 8.59786C23.3981 8.97592 23.5022 9.48478 23.8802 9.73443C24.0194 9.82636 24.1763 9.87027 24.3315 9.87027C24.5978 9.87027 24.859 9.74077 25.0168 9.5019L25.3207 9.04171C25.9248 10.4156 26.2858 11.9194 26.3492 13.4987L25.0563 14.1451C24.6511 14.3477 24.4869 14.8404 24.6895 15.2456C24.8332 15.5331 25.1229 15.6993 25.4238 15.6993C25.5471 15.6993 25.6723 15.6714 25.79 15.6125L26.2843 15.3653C26.1116 16.9293 25.6461 18.4061 24.9436 19.7398L23.5025 19.6534C23.0502 19.6266 22.6617 19.9709 22.6346 20.4231C22.6075 20.8754 22.9521 21.2639 23.4043 21.291L23.95 21.3237C23.0391 22.5579 21.9046 23.6172 20.6065 24.4414Z" fill="white"/>
<path d="M14 5.27173C9.18736 5.27173 5.27197 9.18717 5.27197 13.9999C5.27197 18.8125 9.18736 22.7279 14 22.7279C18.8126 22.7279 22.728 18.8125 22.728 13.9999C22.728 9.18717 18.8126 5.27173 14 5.27173ZM14 15.8154C12.9988 15.8154 12.1844 15.001 12.1844 13.9999C12.1844 12.9987 12.9989 12.1842 14 12.1842C15.0012 12.1842 15.8156 12.9988 15.8156 13.9999C15.8156 15.001 15.0012 15.8154 14 15.8154ZM6.91259 13.9999C6.91259 13.0024 7.12013 12.0525 7.49369 11.1907L10.6827 13.0318C10.5928 13.3392 10.5437 13.6638 10.5437 13.9999C10.5437 14.3359 10.5928 14.6605 10.6827 14.9679L7.49364 16.809C7.12018 15.9472 6.91259 14.9973 6.91259 13.9999ZM17.3173 13.0318L20.5063 11.1907C20.8798 12.0525 21.0874 13.0024 21.0874 13.9999C21.0874 14.9973 20.8799 15.9472 20.5063 16.809L17.3173 14.9679C17.4071 14.6605 17.4562 14.3359 17.4562 13.9999C17.4562 13.6638 17.4071 13.3392 17.3173 13.0318ZM19.6841 9.77095L16.4952 11.612C16.0472 11.144 15.4696 10.8015 14.8204 10.6428V6.96009C16.8065 7.1901 18.5452 8.24414 19.6841 9.77095ZM13.1797 6.96009V10.6428C12.5304 10.8015 11.9528 11.144 11.5048 11.612L8.31592 9.77095C9.45478 8.24414 11.1934 7.1901 13.1797 6.96009ZM8.31592 18.2287L11.5048 16.3877C11.9528 16.8556 12.5304 17.1982 13.1797 17.3569V21.0396C11.1934 20.8096 9.45478 19.7556 8.31592 18.2287ZM14.8203 21.0396V17.3569C15.4695 17.1982 16.0472 16.8557 16.4951 16.3877L19.6841 18.2287C18.5452 19.7556 16.8065 20.8096 14.8203 21.0396Z" fill="white"/>
</g>
<defs>
<clipPath id="clip0">
<rect width="28" height="28" fill="white"/>
</clipPath>
</defs>
</svg>
