<svg width="23" height="23" viewBox="0 0 23 23" fill="none" xmlns="http://www.w3.org/2000/svg">
<path d="M9.09208 14.9647C9.03207 15.0021 8.9696 15.0356 8.9052 15.0649C8.88677 15.0735 8.87028 15.0854 8.8515 15.0937C8.795 15.1149 8.73727 15.133 8.67848 15.1476C8.75499 15.7228 8.68866 16.308 8.48511 16.8516C9.05049 16.8058 9.59412 16.6137 10.0626 16.2941C9.8905 15.7582 9.55025 15.292 9.09208 14.9647Z" fill="white"/>
<path d="M9.59961 12.7017C9.63716 12.7619 9.6705 12.8242 9.69981 12.8886C9.70858 12.9072 9.72034 12.9235 9.72858 12.9425C9.74999 12.999 9.76789 13.0567 9.78246 13.1153C10.3577 13.0388 10.9431 13.1053 11.4865 13.3089C11.4407 12.7435 11.2487 12.1998 10.9292 11.7313C10.3931 11.9035 9.92687 12.2437 9.59961 12.7017Z" fill="white"/>
<path d="M9.81634 13.9387C9.81142 13.9605 9.8023 13.9798 9.79651 14.0024C9.77914 14.0751 9.75703 14.1467 9.73 14.2163C9.72176 14.2353 9.71 14.2518 9.70123 14.2702C9.68701 14.3011 9.66929 14.3297 9.65332 14.3597C10.1139 14.7128 10.4807 15.1737 10.7211 15.7019C11.0892 15.2696 11.3382 14.7489 11.4441 14.1909C10.9427 13.9337 10.3719 13.8452 9.81634 13.9387Z" fill="white"/>
<path d="M7.33701 12.1941C7.39387 12.159 7.453 12.1274 7.51407 12.0997C7.53583 12.089 7.55513 12.0746 7.57812 12.0653C7.63445 12.0439 7.692 12.026 7.75061 12.0114C7.6741 11.4362 7.74043 10.8508 7.94398 10.3074C7.37878 10.353 6.83498 10.5451 6.36646 10.8647C6.5386 11.4008 6.87885 11.8668 7.33701 12.1941Z" fill="white"/>
<path d="M8.63754 11.9986C8.71037 12.0159 8.78179 12.0382 8.85162 12.0652C8.8704 12.0733 8.8869 12.0853 8.90532 12.0938C8.9362 12.1082 8.96498 12.1256 8.99499 12.1419C9.34787 11.6813 9.80885 11.3146 10.3372 11.0742C9.90483 10.706 9.38402 10.457 8.82618 10.3512C8.56911 10.852 8.48067 11.4223 8.57402 11.9773C8.59578 11.9838 8.61578 11.993 8.63754 11.9986Z" fill="white"/>
<path d="M7.86379 12.8401C7.69322 12.9215 7.55583 13.0589 7.47441 13.2295C7.46949 13.2405 7.46212 13.2504 7.45756 13.2616C7.44615 13.2914 7.43668 13.3221 7.42878 13.3532C7.42264 13.3744 7.41404 13.3943 7.40948 13.4173C7.40492 13.4402 7.40667 13.4525 7.40421 13.4697C7.39 13.5425 7.39 13.6175 7.40421 13.6903C7.40667 13.7075 7.40421 13.7256 7.40948 13.7424C7.41474 13.7593 7.42299 13.7835 7.42913 13.807C7.43668 13.8379 7.44615 13.8684 7.45756 13.8982C7.46212 13.9093 7.46949 13.9195 7.47476 13.9305C7.51915 14.0242 7.58092 14.1085 7.65672 14.179C7.97504 14.4613 8.45391 14.4613 8.77223 14.179C8.84803 14.1085 8.9098 14.0242 8.9542 13.9305C8.95946 13.9195 8.967 13.9093 8.97139 13.8982C8.9828 13.8684 8.99227 13.8379 8.99982 13.807C9.00596 13.7852 9.01491 13.7659 9.01947 13.7424C9.02403 13.7191 9.02228 13.7075 9.02491 13.6903C9.03913 13.6175 9.03913 13.5425 9.02491 13.4697C9.02228 13.4525 9.02491 13.4345 9.01947 13.4173C9.01421 13.3999 9.00631 13.3762 9.00017 13.3532C8.99227 13.3221 8.9828 13.2914 8.97139 13.2616C8.967 13.2504 8.95946 13.2405 8.95455 13.2295C8.8733 13.0586 8.73573 12.921 8.56481 12.8398C8.55376 12.8348 8.54393 12.8275 8.53288 12.8226C8.5027 12.8115 8.47216 12.802 8.44128 12.7941C8.41987 12.788 8.40022 12.7794 8.37705 12.7748C8.35407 12.7703 8.34178 12.772 8.32459 12.7696C8.25176 12.7554 8.17684 12.7554 8.10401 12.7696C8.08682 12.772 8.06874 12.7696 8.0519 12.7748C8.03505 12.7801 8.00873 12.7883 7.98732 12.7945C7.95644 12.8022 7.92608 12.8115 7.89625 12.8226C7.8859 12.827 7.87484 12.8343 7.86379 12.8401Z" fill="white"/>
<path d="M7.79153 15.1602C7.7187 15.1428 7.64729 15.1206 7.57745 15.0937C7.55867 15.0855 7.54218 15.0735 7.52375 15.0649C7.49287 15.0505 7.46409 15.0333 7.43426 15.0168C7.0812 15.4776 6.62022 15.8444 6.09204 16.0848C6.52441 16.4528 7.04505 16.7019 7.60289 16.8076C7.85996 16.3069 7.9484 15.7366 7.85522 15.1816C7.83347 15.1749 7.81329 15.166 7.79153 15.1602Z" fill="white"/>
<path d="M9.49365 3.93756L9.6407 4.4066L12.5818 4.16761L12.2347 3.07178L9.49365 3.93756Z" fill="white"/>
<path d="M12.5228 1.25818L8.2146 2.6188L8.46219 3.40246L8.8528 3.27893L8.85525 3.2777L12.3791 2.16467L12.3816 2.16415L12.7706 2.04149L12.5228 1.25818Z" fill="white"/>
<path d="M6.82924 14.4571C6.79186 14.397 6.75835 14.3346 6.72904 14.2702C6.72044 14.2518 6.70851 14.2353 6.70026 14.2163C6.67938 14.1602 6.66148 14.1028 6.64639 14.0447C6.48899 14.0631 6.33054 14.0729 6.17208 14.0738C5.75199 14.0777 5.33488 14.0022 4.94287 13.8513C4.98832 14.4162 5.18029 14.9594 5.49966 15.4276C6.03574 15.2555 6.50198 14.9151 6.82924 14.4571Z" fill="white"/>
<path d="M19.7144 3.72244V9.47235C19.7144 9.92595 20.082 10.2937 20.5357 10.2937H21.3571V2.90088H20.5357C20.082 2.90088 19.7144 3.26867 19.7144 3.72244Z" fill="white"/>
<path d="M17.6609 5.77588H18.8929V6.59746H17.6609V5.77588Z" fill="white"/>
<path d="M17.6609 7.41882H18.8929V8.24023H17.6609V7.41882Z" fill="white"/>
<path d="M6.61289 13.22C6.61781 13.1982 6.62693 13.1789 6.63272 13.1563C6.65009 13.0836 6.6722 13.0122 6.69923 12.9424C6.70747 12.9234 6.71941 12.9071 6.728 12.8885C6.74239 12.8578 6.75994 12.829 6.77608 12.799C6.31528 12.4461 5.94854 11.9851 5.70814 11.4568C5.34016 11.8892 5.09099 12.41 4.98535 12.9678C5.48651 13.2249 6.05733 13.3133 6.61289 13.22Z" fill="white"/>
<path d="M17.6609 9.47243C17.6609 9.69915 17.8448 9.88305 18.0715 9.88305H18.4823C18.7092 9.88305 18.8929 9.69915 18.8929 9.47243V9.06165H17.6609V9.47243Z" fill="white"/>
<path d="M22.1785 2.90088V10.2937C22.6321 10.2937 22.9999 9.92595 22.9999 9.47235V3.72244C22.9999 3.26867 22.6321 2.90088 22.1785 2.90088Z" fill="white"/>
<path d="M18.4823 4.13318H18.0715C17.8448 4.13318 17.6609 4.31708 17.6609 4.54397V4.95458H18.8929V4.54397C18.8929 4.31708 18.7092 4.13318 18.4823 4.13318Z" fill="white"/>
<path d="M7.79731 5.37751H7.77099C7.62184 5.38488 7.45725 5.39593 7.2937 5.41857C7.27493 5.42137 7.25598 5.42278 7.23703 5.4226C2.85897 5.94744 -0.323761 9.83523 0.026308 14.2307C0.376377 18.6263 4.13449 21.9611 8.54044 21.7862C12.9464 21.6112 16.4281 17.9888 16.4287 13.5793C16.4311 12.4484 16.1976 11.3292 15.7427 10.2937H14.3751C14.1484 10.2937 13.9645 10.1098 13.9645 9.88295C13.9645 9.65607 14.1484 9.47235 14.3751 9.47235H16.8394V4.64648L7.82925 5.37628L7.79731 5.37751ZM13.9645 13.5793C13.9645 16.7548 11.3901 19.3292 8.21459 19.3292C5.03887 19.3292 2.46468 16.7548 2.46468 13.5793C2.46468 10.4038 5.03887 7.82939 8.21459 7.82939C11.3887 7.8329 13.961 10.4052 13.9645 13.5793Z" fill="white"/>
<path d="M8.21464 18.5079C10.9366 18.5079 13.143 16.3013 13.143 13.5794C13.143 10.8575 10.9366 8.65088 8.21464 8.65088C5.49271 8.65088 3.28613 10.8575 3.28613 13.5794C3.28912 16.3001 5.49393 18.5049 8.21464 18.5079ZM5.68713 10.3493C6.54221 9.67599 7.63067 9.37155 8.71106 9.50315C9.79144 9.63493 10.7748 10.1921 11.4432 11.0512L11.4456 11.0549C12.1186 11.9103 12.4227 12.9989 12.2905 14.0793C12.1582 15.1597 11.6007 16.1429 10.7413 16.8109C8.95689 18.2066 6.37902 17.8915 4.98331 16.1071C3.5876 14.3229 3.90275 11.7448 5.68713 10.3493Z" fill="white"/>
</svg>
