<svg width="42" height="42" viewBox="0 0 42 42" fill="none" xmlns="http://www.w3.org/2000/svg">
<path d="M41.4545 8.79974C41.4545 15.0313 38.7378 19.5586 38.6235 19.7474C38.3934 20.1235 37.9951 20.3298 37.5841 20.3298C37.3683 20.3298 37.1509 20.2727 36.9542 20.1537C36.3797 19.8045 36.1957 19.0571 36.5432 18.4827C36.5686 18.4414 39.0203 14.3204 39.0203 8.79974C39.0203 5.65142 36.9732 3.36636 34.1518 3.36636C31.4668 3.36636 29.2833 5.54986 29.2833 8.2364C29.2833 9.38052 29.8371 12.2876 30.0498 13.3112C30.1878 13.9697 29.7641 14.614 29.1056 14.752C28.4471 14.8869 27.8028 14.4664 27.6663 13.8094C27.5822 13.4079 26.8459 9.83912 26.8459 8.2364C26.8459 4.20898 30.1228 0.932129 34.1518 0.932129C38.3141 0.932129 41.4545 4.31371 41.4545 8.79974ZM34.3581 10.7151C34.8421 14.7599 35.5435 22.6418 34.7373 23.4448L17.0503 41.1334C15.9633 42.222 14.1971 42.222 13.1086 41.1318L1.28177 29.3066C0.193187 28.2196 0.193187 26.4534 1.28177 25.3649L18.9704 7.67783C19.2513 7.39696 22.3107 7.38426 25.751 7.56358C25.732 7.7905 25.6828 8.00472 25.6828 8.2364C25.6828 9.11869 25.878 10.4866 26.0827 11.6894C25.7224 12.2242 25.5114 12.8668 25.5114 13.5603C25.5114 15.4074 27.0094 16.9054 28.8565 16.9054C30.7036 16.9054 32.2016 15.4074 32.2016 13.5603C32.2016 12.4225 31.6319 11.4196 30.7639 10.8166C30.5861 9.75819 30.4433 8.73626 30.4433 8.2364C30.4433 8.1285 30.4655 8.02853 30.4751 7.92221C30.8987 7.96664 31.3161 8.01266 31.7112 8.06185C34.0486 8.34907 34.0725 8.34431 34.3581 10.7151ZM24.9306 23.9526C24.6561 23.1893 24.1991 22.2737 23.2073 21.22L24.5498 19.876L23.0549 18.3827L21.6061 19.8331C19.667 18.5049 17.6676 18.6128 16.3108 19.9696C14.8319 21.4485 15.181 23.3258 16.2664 25.5077C17.0122 27.0184 17.1487 27.888 16.5695 28.4672C15.9744 29.0622 15.0144 28.8036 14.1432 27.934C13.153 26.9438 12.5722 25.7203 12.2834 24.7285L10.0396 26.0583C10.2998 26.9565 11.0012 28.2371 11.9914 29.2907L10.5283 30.7554L12.0216 32.2502L13.5941 30.6792C15.6682 32.1423 17.7596 31.9455 19.1164 30.5888C20.5049 29.1971 20.6271 27.642 19.4369 25.1713C18.6118 23.4003 18.4134 22.5308 18.9022 22.0436C19.3306 21.6151 20.0923 21.493 21.0841 22.4847C22.1838 23.5844 22.5487 24.6524 22.7471 25.2173L24.9306 23.9526Z" fill="url(#paint0_linear)"/>
<defs>
<linearGradient id="paint0_linear" x1="0.395371" y1="11.3726" x2="51.4216" y2="13.2875" gradientUnits="userSpaceOnUse">
<stop stop-color="#FD4B0D"/>
<stop offset="1" stop-color="#FF855A"/>
</linearGradient>
</defs>
</svg>
