<svg width="38" height="38" viewBox="0 0 38 38" fill="none" xmlns="http://www.w3.org/2000/svg">
<path d="M8.88017 7.70503L24.029 3.57005L23.2267 1.94849C22.7018 0.894473 21.4217 0.459212 20.3676 0.984086L6.80627 7.70503H8.88017Z" fill="white"/>
<path d="M28.7315 3.68945C28.5438 3.68945 28.356 3.71506 28.1682 3.76626L24.6094 4.7392L13.7406 7.70494H26.0773H31.454L30.7883 5.26407C30.5323 4.31247 29.6703 3.68945 28.7315 3.68945Z" fill="white"/>
<path d="M33.6773 9.19849H33.1908H32.5294H31.8679H26.8198H8.26996H5.83762H3.78933H3.40955H2.1379C1.46367 9.19849 0.861988 9.51 0.469399 10.0007C0.290174 10.2269 0.153622 10.4872 0.0768108 10.7731C0.0298709 10.9523 0 11.1401 0 11.3321V11.5882V14.0205V35.1051C0 36.2829 0.955867 37.2387 2.13363 37.2387H33.673C34.8508 37.2387 35.8066 36.2829 35.8066 35.1051V29.1522H23.1457C21.1443 29.1522 19.5185 27.5264 19.5185 25.525V23.5706V22.9092V22.2478V20.7798C19.5185 19.7984 19.911 18.9066 20.5469 18.2537C21.1102 17.6733 21.8655 17.2807 22.7104 17.1825C22.8512 17.1655 22.9963 17.1569 23.1414 17.1569H34.0314H34.6929H35.3543H35.8066V11.3321C35.8109 10.1544 34.855 9.19849 33.6773 9.19849Z" fill="white"/>
<path d="M37.3041 19.1968C37.0907 19.0005 36.8389 18.8511 36.5573 18.753C36.3396 18.6805 36.1092 18.6378 35.866 18.6378H35.8105H35.7678H35.1064H32.721H23.1453C21.9675 18.6378 21.0117 19.5936 21.0117 20.7715V21.834V22.4954V23.1568V25.5209C21.0117 26.6986 21.9675 27.6545 23.1453 27.6545H35.8105H35.866C36.1092 27.6545 36.3397 27.6118 36.5573 27.5393C36.8389 27.4454 37.0907 27.2918 37.3041 27.0955C37.7308 26.7072 37.9996 26.1439 37.9996 25.5209V20.7715C37.9996 20.1484 37.7308 19.5851 37.3041 19.1968ZM27.6003 23.5707C27.6003 24.1596 27.1224 24.6375 26.5335 24.6375H25.8251C25.2362 24.6375 24.7583 24.1596 24.7583 23.5707V22.8624C24.7583 22.521 24.9162 22.218 25.168 22.0259C25.3515 21.8851 25.5777 21.7956 25.8251 21.7956H26.0044H26.5335C27.1224 21.7956 27.6003 22.2734 27.6003 22.8624V23.5707Z" fill="white"/>
</svg>
