<svg width="51" height="52" viewBox="0 0 51 52" fill="none" xmlns="http://www.w3.org/2000/svg">
<path d="M25.5 29.0469C26.3252 29.0469 26.9941 28.3648 26.9941 27.5234C26.9941 26.6821 26.3252 26 25.5 26C24.6748 26 24.0059 26.6821 24.0059 27.5234C24.0059 28.3648 24.6748 29.0469 25.5 29.0469Z" fill="white"/>
<path
        d="M25.5 0C11.4593 0 0 11.6847 0 26C0 40.3164 11.46 52 25.5 52C39.5409 52 51 40.3153 51 26C51 11.684 39.54 0 25.5 0ZM25.5 6.19531C35.1943 6.19531 43.2523 13.4741 44.6939 22.9531H39.5123C36.227 22.9531 33.1057 21.6089 30.9486 19.2653C28.0002 16.0614 23.0001 16.0604 20.0514 19.2652C17.8943 21.6089 14.773 22.9531 11.4876 22.9531H6.30607C7.74772 13.4741 15.8057 6.19531 25.5 6.19531ZM25.5 32.0938C23.0285 32.0938 21.0176 30.0436 21.0176 27.5234C21.0176 25.0033 23.0285 22.9531 25.5 22.9531C27.9717 22.9531 29.9824 25.0033 29.9824 27.5234C29.9824 30.0436 27.9717 32.0938 25.5 32.0938ZM7.41293 33.2208C9.12322 32.5367 10.3582 32.0938 12.0527 32.0938C17.5002 32.0938 21.7367 37.0433 20.9161 42.6045H20.9126C20.7907 43.4556 20.5508 44.2804 20.2049 45.0567C14.3519 43.3636 9.61539 38.9363 7.41293 33.2208ZM30.7963 45.0563C30.4409 44.2595 30.2062 43.4348 30.0874 42.6045H30.0839C29.1278 36.1243 34.9948 30.7773 41.0762 32.3531C41.7173 32.5193 42.5196 32.7939 43.587 33.2209C41.3847 38.9359 36.6487 43.363 30.7963 45.0563Z" fill="#000"/>
</svg>
