<svg width="48" height="48" viewBox="0 0 48 48" fill="none" xmlns="http://www.w3.org/2000/svg">
<g clip-path="url(#clip0)">
<path d="M47.548 7.5918C47.474 7.07544 47.115 6.6451 46.6202 6.47977C46.1281 6.31307 45.5808 6.44342 45.2109 6.81189L43.2638 8.76037C42.223 9.80117 40.409 9.80117 39.3683 8.76037C38.2913 7.68341 38.2918 5.94239 39.3683 4.86617L41.3154 2.91906C41.6838 2.55059 41.8129 2.00467 41.6475 1.5098C41.4821 1.01492 41.0518 0.655903 40.5355 0.582007C37.9658 0.21895 35.3652 1.08221 33.5269 2.91769C31.4481 4.99789 30.6278 8.05574 31.3875 10.8997L11.0288 31.2577L11.0274 31.2563C8.19422 30.5047 5.11893 31.3249 3.0468 33.397C1.22069 35.2231 0.346687 37.8439 0.709744 40.4068C0.783732 40.9231 1.14275 41.3535 1.63754 41.5188C2.12837 41.6842 2.67695 41.5552 3.0468 41.1867L4.9939 39.2382C6.0347 38.1974 7.8487 38.1974 8.88949 39.2382C9.96645 40.315 9.9659 42.056 8.88949 43.1324L6.94239 45.0795C6.57391 45.448 6.44485 45.9939 6.61026 46.4888C6.77568 46.9837 7.20593 47.3427 7.72229 47.4166C10.2853 47.7813 12.8642 46.9458 14.7308 45.0809C16.8096 43.0007 17.6299 39.9429 16.8702 37.0989L37.2289 16.7409L37.2303 16.7423C40.0783 17.4967 43.1388 16.6737 45.2109 14.6016C47.0371 12.7755 47.9111 10.1548 47.548 7.5918Z" fill="url(#paint0_linear)"/>
<path d="M39.3673 30.9766C38.7152 30.9766 38.0442 31.0747 37.2562 31.2832L31.9193 25.947L26.0762 31.7895L31.4122 37.1259C31.2038 37.9152 31.1056 38.5862 31.1056 39.2383C31.1056 43.7941 34.8116 47.5 39.3673 47.5C43.9231 47.5 47.6291 43.7941 47.6291 39.2383C47.6291 34.6825 43.9231 30.9766 39.3673 30.9766ZM43.8855 38.9627L43.0666 42.0177C42.9388 42.4924 42.5677 42.8636 42.0931 42.9913L39.038 43.8102C38.5892 43.9339 38.0706 43.8164 37.7081 43.4538L35.4719 41.2176C35.1237 40.8694 34.9879 40.3625 35.1156 39.8878L35.9345 36.8327C36.0623 36.358 36.4334 35.9869 36.908 35.8592L39.9631 35.0403C40.4351 34.9084 40.9434 35.0483 41.293 35.3966L43.5291 37.6328C43.8774 37.9811 44.0132 38.488 43.8855 38.9627Z" fill="url(#paint1_linear)"/>
<path d="M16.8686 10.8217C17.6283 7.97777 16.808 4.91864 14.7292 2.83972C11.6082 -0.279906 6.16351 -0.279906 3.04526 2.83972C-0.175245 6.06161 -0.175245 11.3031 3.04526 14.5236C5.11473 16.5931 8.17928 17.4254 11.0273 16.663L16.3405 22.0523L22.1826 16.2108L16.8686 10.8217ZM13.2675 8.26822L12.4486 11.3233C12.3208 11.798 11.9497 12.1691 11.4751 12.2968L8.41997 13.1157C7.97118 13.2395 7.45262 13.122 7.09011 12.7594L4.85394 10.5232C4.50566 10.1749 4.36989 9.66803 4.49758 9.19335L5.3165 6.13826C5.44428 5.66357 5.81542 5.29244 6.29001 5.16475L9.3451 4.34583C9.81978 4.21676 10.3267 4.35391 10.675 4.70219L12.9111 6.93836C13.2594 7.28663 13.3952 7.79354 13.2675 8.26822Z" fill="url(#paint2_linear)"/>
</g>
<defs>
<linearGradient id="paint0_linear" x1="0.548686" y1="12.4637" x2="59.0575" y2="14.6609" gradientUnits="userSpaceOnUse">
<stop stop-color="#474FA0"/>
<stop offset="1" stop-color="#868DD9"/>
</linearGradient>
<linearGradient id="paint1_linear" x1="26.0394" y1="31.433" x2="52.8699" y2="32.4406" gradientUnits="userSpaceOnUse">
<stop stop-color="#474FA0"/>
<stop offset="1" stop-color="#868DD9"/>
</linearGradient>
<linearGradient id="paint2_linear" x1="0.593096" y1="5.98585" x2="27.4234" y2="6.99344" gradientUnits="userSpaceOnUse">
<stop stop-color="#474FA0"/>
<stop offset="1" stop-color="#868DD9"/>
</linearGradient>
<clipPath id="clip0">
<rect width="47" height="47" fill="white" transform="translate(0.628906 0.5)"/>
</clipPath>
</defs>
</svg>
